<svg width="306" height="262" viewBox="0 0 306 262" fill="none" xmlns="http://www.w3.org/2000/svg" aria-hidden="true" focusable="false">
<path d="M252.588 104.362C253.353 104.188 254.246 104.018 254.994 103.763C258.996 102.366 263.069 101.095 267.061 99.6014C271.165 98.0682 275.134 96.5454 279.541 96.2078C284.924 95.7962 289.417 97.3091 293.368 100.985C295.703 103.159 297.663 105.655 299.822 108.004C303.696 112.234 305.838 116.847 304.985 122.483C304.466 125.968 302.431 128.516 299.598 130.76C298.923 131.29 299.014 132.7 298.407 133.281C295.956 135.539 295.617 135.749 297.398 138.584C298.839 140.89 299.995 143.486 300.123 146.187C300.275 149.657 299.757 153.216 298.906 156.581C298.124 159.683 295.863 161.773 292.722 162.598C291.645 162.883 290.378 162.673 289.349 163.091C288.142 163.574 287.108 164.747 286.703 165.996C286.368 167.057 285.89 168.068 285.555 169.129C285.178 170.28 284.705 171.516 284.515 172.7C284.292 174.109 285.758 174.876 286.884 175.777C287.462 176.234 287.531 177.338 288.095 177.826C289.238 178.846 290.586 179.668 291.532 180.871C294.337 184.394 297.027 188.121 298.296 192.432C299.823 197.604 298.377 202.424 294.643 206.458C294.067 207.091 294.092 208.211 293.546 208.858C292.441 210.182 291.541 211.345 290.994 212.971C290.134 215.574 289.251 218.186 290.694 220.604C291.377 221.739 292.939 222.458 293.437 223.672C294.543 226.373 293.777 229.206 291.84 231.431C289.219 234.44 286.65 237.492 283.922 240.414C282.748 241.687 281.433 243.024 279.952 243.931C278.236 244.985 277.091 246.236 276.031 247.932C274.869 249.766 273.594 251.527 272.471 253.397C271.534 254.949 270.932 256.733 269.912 258.227C268.878 259.752 266.832 260.447 265.068 261.054C262.815 261.837 260.604 261.475 258.242 261.08C255.505 260.618 253.336 259.464 251.098 257.908C247.274 255.253 243.722 252.412 240.584 249.009C237.775 245.964 235.009 242.867 232.207 239.807C229.405 236.748 226.596 233.703 223.904 230.567C221.02 227.21 217.289 224.672 214.23 221.491C211.171 218.311 208.077 215.205 204.872 212.177C201.668 209.149 199.389 205.1 196.052 202.194C192.274 198.895 187.857 196.439 183.689 193.769C179.521 191.098 175.209 188.655 170.572 186.705C167.413 185.379 164.205 184.196 161.004 183.035C157.804 181.874 154.566 180.714 151.246 179.884C147.927 179.055 144.629 177.904 141.179 177.585C137.751 177.258 134.213 177.046 130.763 177.078C127.657 177.125 124.611 178.179 121.592 178.785C118.573 179.39 115.524 179.981 112.578 180.861C109.269 181.846 106.142 183.305 103.045 184.741C99.9471 186.177 96.8434 187.666 93.8327 189.309C88.6678 192.151 83.7369 195.435 78.58 198.299C75.2526 200.144 71.615 201.473 68.3878 203.457C65.1607 205.441 62.0904 207.758 58.9643 209.919C56.4414 211.664 54.1802 213.753 51.6103 215.402C49.0404 217.05 46.6496 219.023 43.9874 220.554C39.8505 222.939 34.9564 224.192 31.1067 227.064C27.3007 229.882 23.5346 232.812 19.9902 235.976C17.6027 238.099 15.6136 240.668 13.3255 242.892C11.0374 245.117 9.12291 247.684 6.9954 250.077C6.21563 250.946 4.93096 251.281 4.01363 252.011C2.74398 253.018 1.96641 252.983 1.39535 251.495C1.2767 251.198 1.43276 250.829 1.35856 250.517C0.671056 247.828 0.199547 245.113 0.819324 242.432C1.30231 240.315 2.75238 238.692 4.70735 237.603C8.88238 235.254 13.1903 233.171 17.3503 230.814C20.3966 229.096 23.1318 226.824 26.093 224.972C29.7169 222.695 33.8436 221.191 37.4747 218.899C41.1057 216.607 44.2189 213.535 47.842 211.221C51.4651 208.907 55.6849 207.557 59.2929 205.236C63.2762 202.667 67.0973 199.856 70.9805 197.147C74.8637 194.439 78.0772 190.841 81.8219 187.957C85.4128 185.203 89.6033 183.212 93.0486 180.296C96.4939 177.381 99.7086 174.172 102.885 170.927C105.383 168.376 108.063 165.986 110.439 163.341C112.815 160.696 115.28 158.057 117.488 155.259C119.696 152.461 121.054 149.039 123.064 146.074C124.647 143.738 126.043 141.332 126.954 138.66C128.047 135.446 128.998 132.183 130.128 128.969C131.406 125.325 132.026 121.629 132.299 117.806C132.56 114.125 133.09 110.424 132.635 106.774C132.132 102.677 130.871 98.7021 130.123 94.6556C129.375 90.6091 127.99 86.7785 126.737 82.8254C125.466 78.7906 124.395 74.6468 123.497 70.529C122.598 66.4112 122.964 62.0783 122.534 57.8679C122.151 54.1045 120.437 50.6174 119.438 47.0247C118.439 43.4319 118.202 39.5159 116.632 36.0779C115.956 34.5767 115.267 33.1805 114.873 31.5909C113.922 27.7805 112.286 24.1273 111.476 20.2913C111.142 18.7302 111.687 17.3438 113.35 16.5597C113.97 16.262 113.297 15.5376 113.343 14.9316C113.417 13.8768 114.859 12.9333 114.985 11.8848C115.162 10.4542 115.288 9.36839 116.41 8.43954C120.78 4.81641 125.397 1.49401 131.132 0.768285C134.394 0.351784 137.772 1.1352 141.069 0.919598C142.978 0.787292 144.83 0.42473 146.696 0.696724C150.465 1.23988 153.953 2.25986 157.397 3.60949C160.84 4.95912 163.917 6.61571 166.872 9.15639C167.557 9.73861 169.122 9.24053 169.837 9.79968C171.258 10.8958 171.886 10.934 173.289 9.87937C173.973 9.37113 174.712 9.01849 175.334 8.4444C179.163 4.99022 183.528 5.13166 187.991 7.6461C192.386 10.1098 197.196 11.7724 201.727 13.9866C203.796 15.001 205.747 16.4213 207.411 18.0198C208.808 19.3629 209.989 21.047 211.79 21.7686C212.287 21.9666 213.04 21.5464 213.523 21.7746C215.923 22.9086 217.487 25.0322 217.777 27.6623C217.948 29.2943 217.157 30.9701 217.141 32.6062C217.141 33.2709 217.725 33.6762 217.636 34.6865C218.319 34.1783 218.852 34.6518 219.271 34.3512C220.168 33.7037 220.352 31.907 221.311 31.3627C224.371 29.6138 227.277 30.968 228.944 34.0453C229.217 34.5621 228.87 35.3765 229.12 35.9012C229.778 37.2459 230.685 36.7326 232.172 36.438C233.213 36.228 234.323 36.4198 235.371 36.1947C238.531 35.5265 240.845 36.1395 242.35 38.974C242.927 40.0591 243.119 41.332 243.623 42.4561C245.346 46.3911 248.045 49.1616 252.224 50.323C254.478 50.9449 256.879 51.063 259.12 51.7523C262.836 52.9166 265.461 55.7634 267.808 58.848C268.424 59.6559 268.714 60.6054 269.226 61.4753C270.872 64.2469 273.117 66.8035 275.715 68.7322C276.018 68.9495 276.283 69.093 276.543 69.3635C277.56 70.4163 278.786 71.457 278.594 72.9178C278.434 74.0791 278.333 75.2689 278.105 76.4168C277.665 78.7944 275.667 79.937 273.359 80.9521C273.285 80.9911 273.798 81.8983 273.74 81.9818C273.719 82.0271 273.813 81.9055 273.822 81.965C273.874 82.285 273.806 82.5853 273.903 82.8894C274.747 85.9105 273.429 88.4272 271.218 90.4111C269.995 91.514 268.34 92.0066 266.979 92.9333C262.594 95.9219 258.906 99.9779 254.498 102.937C253.931 103.316 252.726 102.857 252.159 103.236C252.192 103.362 252.525 104.221 252.573 104.355L252.588 104.362ZM110.476 180.034C113.109 179.228 115.782 178.496 118.368 177.557C121.776 176.323 125.255 175.252 128.687 174.085C132.119 172.917 135.447 171.424 138.918 170.331C142.389 169.237 145.894 168.307 149.374 167.273C152.854 166.24 156.439 165.569 159.927 164.595C163.416 163.621 166.66 161.718 170.172 160.773C173.706 159.821 177.443 159.61 180.939 158.621C184.435 157.631 187.644 155.528 191.147 154.486C194.649 153.444 198.24 152.722 201.734 151.658C205.228 150.594 208.618 149.203 212.104 148.08C215.589 146.956 219.06 145.863 222.515 144.688C226.155 143.471 229.883 142.536 233.539 141.364C237.195 140.192 241.045 139.665 244.709 138.515C248.373 137.365 252.045 136.237 255.71 135.124C259.375 134.012 263.031 132.84 266.703 131.712C270.397 130.576 274.107 129.799 277.893 129.094C281.679 128.389 285.332 126.717 289.169 126.295C292.872 125.883 296.667 126.605 300.373 126.306C301.968 126.173 302.06 125.94 302.549 124.435C303.219 122.314 302.84 120.731 302.568 118.571C302.077 118.672 302.037 118.561 301.539 118.676C298.04 119.516 294.753 121.158 291.286 122.087C287.818 123.016 284.31 123.797 280.845 124.8C277.379 125.804 273.644 125.776 270.185 126.764C266.727 127.753 263.569 129.825 260.086 130.747C256.448 131.724 252.72 132.346 249.076 133.376C245.432 134.406 241.817 135.413 238.195 136.472C234.574 137.531 231.041 138.873 227.428 139.954C223.815 141.036 220.282 142.377 216.669 143.459C213.055 144.54 209.377 145.37 205.748 146.444C201.348 147.745 196.991 149.306 192.543 150.474C188.095 151.641 183.467 152.096 179.043 153.33C175.406 154.345 171.617 154.9 168.058 156.1C164.5 157.3 160.93 158.642 157.437 160.095C153.471 161.767 149.646 163.764 145.688 165.459C141.73 167.153 137.732 168.736 133.765 170.371C129.502 172.124 125.167 173.678 120.826 175.284C117.633 176.453 114.782 178.541 111.581 179.688C111.203 179.823 110.798 180.094 110.452 180.318C109.595 180.375 108.304 179.119 107.762 179.915C107.07 179.699 106.852 180.63 106.399 181.118C105.109 181.543 103.709 181.731 102.482 182.296C98.755 183.971 95.106 185.793 91.4649 187.637C87.8239 189.481 84.1908 191.347 80.7367 193.538C80.2581 193.848 79.1689 194.238 78.8153 194.791C79.1416 194.687 80.5067 195.276 80.8019 195.12C84.1389 193.372 87.1409 191.005 90.4628 189.25C93.7847 187.495 97.2227 185.925 100.553 184.192C102.096 183.388 103.638 182.547 105.205 181.81C105.611 181.614 106.05 181.507 106.44 181.267C106.989 181.083 107.41 180.543 107.958 180.359C108.698 180.044 109.661 180.351 110.401 180.036L110.476 180.034ZM121.68 166.712C123.881 165.573 126.087 164.343 128.199 162.959C127.895 163.055 127.048 162.268 126.753 162.424C125.018 163.321 123.463 164.581 121.751 165.508C121.455 165.664 121.145 165.813 120.874 166.036C120.163 166.328 118.966 167.221 118.255 167.513C119.106 167.509 120.316 166.825 120.816 166.119C120.965 166.116 121.562 166.767 121.68 166.712V166.712ZM101.154 180.339C105.101 178.511 109.02 176.705 113.007 174.988C116.994 173.27 121.054 171.753 125.089 170.169C129.124 168.585 133.033 166.683 137.115 165.195C141.197 163.707 145.337 162.449 149.459 161.072C153.121 159.848 156.895 158.897 160.517 157.561C164.14 156.225 167.381 153.897 170.949 152.443C174.517 150.989 178.383 150.193 181.919 148.65C185.898 146.91 189.414 144.158 193.402 142.44C197.389 140.723 201.504 139.361 205.5 137.666C209.495 135.971 213.389 134.061 217.393 132.426C221.397 130.79 225.44 129.191 229.475 127.607C233.51 126.023 237.641 124.706 241.692 123.166C245.136 121.857 248.796 121.185 252.249 119.935C255.701 118.685 259.162 117.457 262.646 116.259C266.129 115.061 269.599 113.893 273.107 112.799C276.616 111.704 280.142 110.729 283.682 109.724C287.972 108.5 292.165 106.308 296.668 106.237C296.742 106.235 297.091 106.788 297.238 106.672C297.091 106.474 296.8 106.152 296.64 105.984C295.478 104.807 293.886 104.073 292.71 102.927C288.638 98.8801 284.03 97.2204 278.427 97.861C274.374 98.3101 270.81 100.265 267.01 101.664C263.276 103.04 259.425 104.157 255.651 105.421C253.939 105.997 252.08 105.359 250.215 105.162C249.639 105.092 249.185 106.522 248.616 106.788C244.661 108.632 240.564 110.113 236.609 111.956C232.654 113.8 228.699 115.606 224.744 117.45C220.789 119.294 216.974 121.388 213.02 123.232C209.294 124.981 205.664 126.959 201.946 128.73C198.229 130.501 194.387 132.029 190.669 133.8C186.952 135.571 183.399 137.697 179.69 139.49C175.98 141.284 171.965 142.434 168.264 144.25C164.562 146.065 160.618 147.378 156.925 149.216C153.231 151.054 149.553 152.899 145.867 154.759C142.182 156.619 138.652 158.774 134.997 160.649C131.172 162.609 127.284 164.466 123.467 166.448C119.65 168.431 115.857 170.48 112.086 172.559C108.316 174.637 105.112 177.667 101.435 179.9C100.941 180.202 100.543 180.42 100.042 180.738C100.074 180.827 99.7741 181.11 99.8211 181.206C100.235 181.032 100.733 180.565 101.154 180.377L101.154 180.339ZM144.877 10.2157C145.089 15.3572 145.338 20.4979 145.304 25.6524C145.274 29.3129 145.057 32.9777 144.952 36.6399C144.847 40.3021 145.101 43.9862 144.982 47.6413C144.865 51.0946 144.568 54.5371 144.399 57.9841C144.229 61.4312 143.701 64.8564 143.494 68.3043C143.255 72.328 143.877 76.4072 143.435 80.3907C142.994 84.3741 141.677 88.2576 141.019 92.231C140.361 96.2044 140.707 100.357 139.809 104.291C138.905 108.277 137.648 112.189 136.639 116.163C135.63 120.137 134.831 124.173 133.612 128.084C133.556 128.28 132.846 127.907 133.032 128.217C133.282 127.688 133.6 127.562 133.834 127.026C135.723 122.637 138.245 118.51 140.149 114.128C142.053 109.745 143.933 105.334 145.777 100.923C147.272 97.3271 148.708 93.7024 150.12 90.0856C151.533 86.4688 153.006 82.8432 154.343 79.1908C155.681 75.5384 155.859 71.4861 157.069 67.7917C158.278 64.0973 160.308 60.661 161.39 56.9246C162.52 53.0079 163.454 49.0359 164.419 45.0781C165.383 41.1203 165.673 37.0282 166.457 33.0221C167.241 29.0161 168.439 25.1128 169.029 21.0887C169.431 18.3609 169.047 15.8898 169.384 13.2606C167.371 11.737 165.773 10.4283 163.864 8.9174C160.23 6.05579 156.419 3.64629 152.017 2.52722C150.124 2.03923 147.932 2.88742 145.998 2.56467C145.503 2.47864 145.238 1.98413 144.76 1.97988C145.026 4.85702 144.75 7.55207 144.863 10.2459L144.877 10.2157ZM185.255 7.88652C182.891 6.71442 180.152 7.11923 178.042 8.65274C177.094 9.33123 176.084 9.94387 175.144 10.6446C173.895 11.5688 172.822 12.7057 171.144 12.8179C170.993 14.3898 170.655 16.0032 170.473 17.5235C169.988 21.9113 168.986 26.1836 168.209 30.5256C167.432 34.8676 167.45 39.3636 166.411 43.6368C165.371 47.91 163.475 51.9633 162.232 56.1962C161.038 60.2488 160.837 64.6227 159.485 68.6191C158.133 72.6154 156.359 76.4867 154.879 80.4411C153.399 84.3955 152.115 88.4426 150.545 92.3542C148.974 96.2658 147.321 100.157 145.682 104.055C144.094 107.847 142.234 111.512 140.6 115.283C138.967 119.054 136.729 122.54 135.02 126.275C133.311 130.01 131.594 133.724 129.779 137.409C128.915 139.161 128.037 140.981 127.294 142.865C127.505 142.614 128.556 142.814 128.736 142.549C131.091 139.284 132.444 135.325 134.708 132.018C136.972 128.711 139.963 125.858 142.143 122.493C144.324 119.128 146.36 115.639 148.457 112.216C150.554 108.794 152.075 105.025 154.089 101.544C156.102 98.0634 158.487 94.8133 160.402 91.2674C162.317 87.7216 163.477 83.8192 165.279 80.2385C167.082 76.6578 169.02 73.1414 170.723 69.4957C172.427 65.85 175.021 62.6251 176.604 58.9224C178.286 54.9709 178.845 50.5815 180.384 46.581C181.923 42.5805 183.756 38.7004 185.182 34.665C186.608 30.6297 188.019 26.5872 189.354 22.5091C190.445 19.1834 191.451 16.0761 192.717 12.5747C190.004 11.1639 187.944 9.19329 185.232 7.85716L185.255 7.88652ZM267.365 66.4316C264.281 68.465 261.22 70.5277 258.136 72.561C255.052 74.5943 251.891 76.5173 248.837 78.6022C245.409 80.9345 242.189 83.5684 238.768 85.923C235.348 88.2775 231.834 90.4773 228.406 92.8096C224.977 95.142 221.355 97.1798 217.927 99.5121C214.498 101.844 211.618 104.971 208.19 107.304C204.761 109.636 200.877 111.291 197.44 113.601C194.004 115.911 191.163 119.149 187.704 121.43C184.465 123.556 181.018 125.381 177.764 127.501C174.51 129.62 171.387 131.93 168.125 134.027C164.863 136.124 161.555 138.163 158.285 140.238C155.015 142.312 151.583 144.144 148.298 146.212C145.013 148.28 141.394 149.802 138.117 151.892C134.84 153.982 131.57 156.057 128.308 158.154C125.179 160.166 122.089 162.252 118.99 164.315C115.892 166.379 112.762 168.391 109.671 170.439C109.406 170.609 110.033 170.924 109.855 171.301C110.166 171.19 110.035 171.663 110.338 171.53C111.047 171.163 111.693 170.655 112.386 170.281C116.069 168.272 119.455 165.716 123.137 163.707C126.819 161.698 130.75 160.138 134.425 158.107C138.099 156.075 141.415 153.394 145.089 151.363C148.763 149.331 152.532 147.492 156.213 145.445C159.894 143.398 164.06 142.282 167.711 140.221C171.362 138.16 174.453 135.096 178.096 133.013C181.739 130.93 185.576 129.178 189.228 127.117C192.879 125.056 196.545 123.003 200.196 120.942C203.847 118.881 207.358 116.569 211.017 114.493C214.675 112.417 218.202 110.15 221.86 108.073C225.519 105.997 229.295 104.18 232.953 102.104C236.611 100.028 240.083 97.6426 243.72 95.5745C246.699 93.8796 250.021 92.7895 252.986 91.0875C255.95 89.3855 259.209 88.155 262.197 86.4823C264.602 85.1439 267.124 84.0642 269.607 82.8734C270.635 82.3799 271.787 81.8163 272.449 80.6886C272.615 80.416 273.02 80.4966 273.346 80.3549C274.603 79.8039 275.555 78.61 275.892 77.3103C276.221 76.0257 275.433 74.4898 275.71 73.1989C275.995 71.8929 275.858 71.4776 274.86 70.5813C273.221 69.0867 272.383 66.3643 270.606 64.7309C269.787 65.175 268.257 65.9112 267.389 66.4983L267.365 66.4316ZM194.361 12.6126C194.19 12.9749 193.428 13.6119 193.345 13.9424C192.198 17.74 190.884 21.4591 189.653 25.1988C188.422 28.9385 187.478 32.8136 186.149 36.5256C184.821 40.2376 183.266 43.88 181.81 47.55C180.353 51.22 178.527 54.734 176.973 58.3764C175.418 62.0187 174.694 66.0159 173.041 69.5933C171.388 73.1706 168.973 76.4064 167.207 79.9489C165.442 83.4914 164.643 87.5277 162.779 91.0051C160.915 94.4826 158.688 97.7889 156.733 101.224C154.778 104.658 153.006 108.216 150.945 111.601C148.884 114.985 146.741 118.312 144.581 121.632C142.422 124.952 139.99 128.069 137.74 131.346C135.491 134.622 132.685 137.434 130.344 140.631C128.257 143.486 126.17 146.341 124.089 149.181C122.009 152.021 119.93 154.898 117.843 157.753C117.538 158.163 117.361 159.28 117.263 159.88C117.694 159.474 117.942 158.169 118.358 157.756C121.04 155.09 124.295 153.008 126.862 150.232C129.429 147.456 131.851 144.556 134.327 141.699C136.802 138.843 138.753 135.573 141.138 132.636C143.522 129.7 146.272 127.084 148.596 124.119C150.999 121.026 152.726 117.447 155.008 114.259C157.289 111.07 159.685 107.992 161.846 104.747C164.007 101.502 167.016 98.768 169.085 95.4428C171.154 92.1176 172.171 88.166 174.127 84.7687C176.083 81.3713 178.319 78.1619 180.176 74.6995C182.033 71.2371 183.891 67.8121 185.65 64.322C187.51 60.6579 189.151 56.8717 191.019 53.2298C192.887 49.5879 194.573 45.8231 196.479 42.1804C198.384 38.5377 200.524 35.0242 202.414 31.3743C203.811 28.6916 205.101 25.9216 206.588 23.2816C206.947 22.6387 207.942 22.37 208.25 21.7954C204.4 17.3178 199.367 14.9954 194.353 12.5904L194.361 12.6126ZM133.935 153.592C136.769 151.698 139.532 149.68 142.265 147.647C144.998 145.614 147.792 143.647 150.479 141.555C153.166 139.463 155.584 137.041 158.248 134.92C161.837 132.054 165.54 129.335 169.137 126.491C172.733 123.647 176.567 121.081 180.163 118.237C183.76 115.393 186.756 111.786 190.345 108.92C193.691 106.253 197.522 104.203 200.853 101.53C204.184 98.8558 206.823 95.3013 210.17 92.6347C213.516 89.9681 217.07 87.5658 220.401 84.892C223.732 82.2183 226.902 79.339 230.248 76.6725C233.595 74.0059 236.957 71.3837 240.318 68.7242C243.298 66.3646 246.524 64.3057 249.573 62.0342C252.621 59.7626 256.086 58.0569 259.135 55.7853C259.473 55.5388 259.902 54.6702 260.401 54.2781C259.46 53.9257 258.418 53.4337 257.628 53.1899C256.109 52.7309 254.581 52.2123 253.041 51.7986C249.757 50.8936 246.132 50.4741 243.859 47.6643C243.601 47.8568 243.687 47.3619 243.519 47.5225C240.823 50.182 238.217 52.9217 235.506 55.5741C232.794 58.2265 230.54 61.3168 227.843 63.9764C225.147 66.6359 222.076 68.9154 219.386 71.5599C216.696 74.2043 214.535 77.4121 211.823 80.0645C209.111 82.7169 206.269 85.2154 203.565 87.8527C200.86 90.49 197.399 92.3824 194.695 95.0197C191.99 97.657 190.065 101.106 187.361 103.743C184.561 106.465 181.471 108.902 178.648 111.594C175.825 114.286 172.957 116.957 170.119 119.642C167.281 122.327 164.611 125.203 161.75 127.858C158.889 130.514 156.19 133.376 153.329 136.031C150.036 139.093 146.46 141.854 143.075 144.798C139.69 147.742 136.505 150.927 133.113 153.886C132.834 154.124 132.088 153.827 131.81 154.065C131.864 154.146 132.161 154.729 132.222 154.795C132.789 154.416 133.383 153.94 133.942 153.576L133.935 153.592ZM115.343 164.568C118.125 162.355 120.814 160.024 123.458 157.672C126.101 155.32 128.821 153.004 131.38 150.556C133.94 148.109 136.193 145.332 138.691 142.819C141.438 140.054 144.223 137.325 146.855 134.451C149.487 131.576 152.332 128.876 154.843 125.907C157.353 122.938 159.087 119.306 161.506 116.257C163.925 113.208 166.937 110.623 169.28 107.501C171.622 104.379 173.039 100.598 175.322 97.447C177.705 94.1596 180.356 91.0903 182.694 87.7814C185.033 84.4726 187.136 80.9973 189.429 77.6671C191.723 74.3368 194.023 70.9915 196.248 67.6105C198.473 64.2296 200.895 60.9786 203.043 57.5247C205.099 54.2297 207.684 51.2589 209.709 47.9496C211.733 44.6404 213.743 41.3239 215.768 38.0147C216.179 37.3407 216.442 36.4311 216.272 35.5012C216.036 34.2816 216.449 33.0549 216.458 31.7849C216.483 30.5594 215.366 29.4043 215.235 28.1972C215.017 26.1555 214.745 24.3093 212.835 23.4258C211.688 22.8838 210.343 22.5254 209.211 22.0279C207.282 25.6039 205.874 29.4447 203.951 32.9683C202.028 36.4919 199.66 39.8237 197.798 43.3759C196.043 46.7389 194.991 50.4522 193.266 53.8294C191.541 57.2067 189.628 60.4761 187.903 63.8534C186.179 67.2306 183.502 70.1213 181.762 73.4914C179.765 77.3677 178.682 81.7315 176.533 85.4992C174.384 89.2668 171.782 92.8206 169.474 96.4947C167.166 100.169 164.738 103.786 162.294 107.396C159.85 111.006 157.55 114.702 154.984 118.218C152.419 121.733 149.99 125.35 147.311 128.794C144.908 131.887 142.224 134.793 139.714 137.8C137.205 140.806 134.902 144.039 132.271 146.951C129.639 149.863 126.429 152.243 123.683 155.046C120.937 157.848 117.763 160.19 114.918 162.89C114.354 163.418 113.77 164.029 113.207 164.556C113.268 164.622 113.834 165.222 113.896 165.288C114.308 165.002 114.932 164.891 115.321 164.576L115.343 164.568ZM179.649 184.104C183.182 184.795 186.693 185.493 190.171 186.341C193.648 187.19 197.062 188.249 200.492 189.315C203.922 190.381 207.391 191.207 210.731 192.582C214.749 194.24 218.673 196.057 222.67 197.76C226.667 199.463 230.47 201.537 234.431 203.315C238.392 205.094 242.731 206.035 246.634 207.898C250.537 209.76 254.106 212.369 257.966 214.322C261.826 216.274 266.204 217.29 270.014 219.348C273.825 221.406 277.457 223.842 281.21 226.022C283.503 227.345 285.968 228.38 288.298 229.665C288.751 229.916 288.72 230.178 289.158 230.385C291.341 228.499 291.936 227.358 291.051 224.853C290.652 223.704 290.724 222.261 290.081 221.237C288.167 218.136 288.127 215.328 289.314 211.993C289.441 211.646 289.295 210.783 289.428 210.384C284.129 207.918 278.817 205.483 273.394 203.475C269.455 202.002 265.082 201.876 261.06 200.696C257.038 199.516 253.244 197.539 249.229 196.345C245.439 195.219 241.609 194.297 237.793 193.306C233.976 192.316 230.003 192.009 226.152 191.132C222.301 190.254 218.559 188.948 214.695 188.176C210.832 187.403 206.821 187.411 202.944 186.706C197.048 185.62 191.135 184.729 185.187 183.913C182.654 183.567 180.257 182.231 177.718 181.937C176.685 181.818 175.589 182.925 174.549 182.859C174.537 182.964 174.545 182.321 174.539 182.411C176.295 182.76 177.893 183.755 179.649 184.104V184.104ZM167.229 156.096C171.268 155.013 175.291 153.885 179.323 152.816C183.355 151.747 187.442 150.797 191.465 149.706C195.489 148.615 199.422 147.131 203.437 145.98C207.089 144.935 210.787 143.986 214.43 142.881C218.073 141.777 221.804 140.991 225.454 139.871C229.104 138.752 232.449 136.713 236.108 135.652C239.944 134.528 244.007 134.176 247.852 133.074C251.696 131.973 255.248 129.809 259.1 128.73C262.953 127.65 266.902 126.912 270.755 125.833C275.097 124.615 279.389 123.152 283.732 121.972C288.075 120.792 292.456 119.649 296.807 118.491C298.752 117.969 300.776 117.946 302.947 117.495C302.857 116.824 303.353 116.283 303.228 115.688C302.604 112.864 301.104 110.253 299.175 108.123C298.669 107.552 297.812 107.294 297.036 107.334C293.738 107.512 290.441 108.004 287.276 108.762C284.111 109.52 281.289 111.585 278.158 112.544C274.315 113.72 270.23 114.08 266.427 115.331C262.623 116.581 258.861 118.017 255.089 119.356C251.317 120.695 247.76 122.634 243.997 124.033C240.234 125.432 236.312 126.386 232.573 127.851C228.833 129.317 225.402 131.5 221.693 133.017C217.985 134.534 214.19 135.843 210.498 137.405C206.288 139.165 201.66 139.97 197.457 141.752C193.254 143.534 189.509 146.381 185.314 148.186C181.12 149.99 176.767 151.424 172.557 153.221C170.567 154.072 168.537 154.812 166.546 155.626C166.555 155.686 166.605 155.229 166.628 155.296C166.822 155.276 167.073 156.152 167.266 156.096L167.229 156.096ZM294.075 205.082C296.396 202.356 297.353 198.69 296.802 195.124C295.148 194.638 293.21 193.815 291.496 193.301C288.157 192.315 284.693 191.713 281.333 190.772C277.974 189.831 274.635 188.808 271.233 187.995C267.831 187.182 264.505 186.054 261.076 185.376C257.58 184.685 253.912 184.984 250.396 184.413C246.88 183.841 243.453 182.574 239.912 182.212C233.946 181.591 227.874 181.973 221.895 181.457C217.495 181.077 213.132 180.383 208.735 180.153C204.338 179.922 199.934 180.058 195.528 180.082C191.936 180.103 188.359 180.13 184.767 180.188C181.176 180.246 177.594 180.05 174.002 180.108C172.046 180.144 170.066 179.411 168.101 179.388C168.088 179.493 168.029 180.518 168.016 180.622C169.386 180.771 170.824 180.933 172.201 181.029C175.911 181.268 179.587 181.693 183.287 182.111C186.986 182.529 190.817 181.846 194.496 182.383C198.176 182.921 201.697 184.418 205.364 185.061C209.031 185.703 212.703 186.256 216.356 186.966C220.617 187.797 225.002 188.132 229.229 189.113C233.456 190.094 237.547 191.676 241.74 192.807C245.933 193.938 250.327 194.371 254.5 195.584C258.672 196.798 262.761 198.268 266.92 199.549C270.808 200.74 274.26 203.127 278 204.709C281.74 206.291 285.88 207.065 289.429 209.092C289.565 209.156 289.305 209.588 289.426 209.645C290.874 207.91 292.706 206.688 294.075 205.082V205.082ZM149.972 144.27C153.346 142.17 156.674 140.012 160.025 137.883C163.376 135.754 166.804 133.736 170.132 131.577C173.459 129.419 176.593 126.929 179.906 124.764C183.219 122.598 186.631 120.535 189.943 118.333C193.254 116.13 196.752 114.237 200.056 112.012C203.36 109.787 206.094 106.775 209.383 104.543C212.672 102.311 216.385 100.704 219.659 98.4651C222.933 96.2259 225.55 93.0303 228.816 90.7689C231.67 88.793 234.732 87.1187 237.601 85.1499C240.47 83.1811 243.192 81.014 246.054 79.0603C248.916 77.1066 251.831 75.1966 254.693 73.2429C257.114 71.5979 259.711 70.2028 262.179 68.6539C264.595 67.1359 267.66 65.9246 270.284 64.3572C268.013 60.6808 265.136 56.5699 261.027 54.5555C257.825 56.9947 254.388 59.5812 251.209 62.0499C248.03 64.5185 244.774 66.9142 241.603 69.4051C238.432 71.896 235.976 75.2971 232.805 77.7879C229.634 80.2788 225.918 82.0873 222.762 84.5853C219.606 87.0833 216.535 89.7139 213.387 92.2341C210.239 94.7544 207.476 97.7515 204.328 100.272C201.18 102.792 197.709 104.901 194.561 107.421C191.413 109.942 188.742 113.056 185.594 115.577C182.446 118.097 179.159 120.441 175.996 122.954C172.833 125.467 169.017 127.136 165.861 129.634C162.705 132.132 160.219 135.519 157.055 137.995C153.891 140.47 150.459 142.653 147.265 145.115C147.349 145.21 147.293 145.054 147.371 145.165C148.129 144.692 149.191 144.751 149.95 144.278L149.972 144.27ZM148.675 172.428C152.898 171.579 157.098 170.664 161.306 169.808C165.515 168.952 169.764 168.244 173.988 167.433C177.216 166.815 180.392 165.878 183.636 165.342C186.881 164.807 190.151 164.413 193.402 163.824C197.523 163.075 201.718 162.638 205.832 161.866C209.945 161.094 213.894 159.341 218.022 158.576C221.711 157.881 225.531 158.005 229.244 157.377C232.957 156.748 236.49 155.056 240.19 154.533C243.89 154.009 247.682 153.88 251.415 153.483C254.604 153.142 257.811 152.608 261.003 152.379C264.195 152.151 267.426 151.997 270.617 151.769C275.435 151.422 280.289 151.388 285.116 151.138C289.197 150.942 293.614 151.404 297.794 151.273C299.111 146.023 297.298 140.79 294.12 136.26C293.829 136.289 292.796 136.208 292.193 136.273C287.649 136.823 283.103 137.612 278.651 138.593C274.199 139.574 270.036 141.818 265.586 142.873C262.109 143.705 258.417 143.624 254.924 144.411C251.432 145.199 247.978 146.098 244.493 146.87C241.007 147.643 237.647 149.01 234.154 149.798C230.311 150.66 226.384 151.039 222.557 151.947C218.731 152.854 215.101 154.518 211.275 155.463C207.45 156.407 203.605 157.158 199.811 158.154C196.016 159.15 191.93 159.122 188.144 160.178C184.359 161.233 180.889 163.38 177.104 164.473C173.638 165.476 170.036 166.065 166.554 166.987C163.071 167.908 159.55 168.756 156.044 169.612C152.537 170.467 149.089 171.59 145.575 172.422C145.017 172.547 144.66 172.913 144.125 173.067C144.15 173.171 143.847 172.289 143.871 172.393C145.419 172.127 147.106 172.739 148.66 172.421L148.675 172.428ZM287.285 162.966C287.143 162.954 286.358 162.269 286.037 162.284C281.336 162.464 276.631 162.494 271.929 162.674C267.228 162.854 262.549 163.414 257.848 163.594C252.378 163.798 246.904 163.853 241.431 163.946C237.594 164.017 233.743 163.841 229.925 164.106C226.106 164.371 222.386 165.679 218.563 166.07C215.344 166.396 212.032 165.903 208.811 166.191C205.591 166.48 202.463 167.902 199.244 168.228C195.674 168.591 192.075 168.627 188.506 169.028C184.938 169.429 181.428 170.135 177.868 170.595C173.6 171.146 169.348 171.704 165.089 172.315C160.831 172.925 156.544 173.283 152.286 173.931C148.251 174.536 144.132 174.695 140.1 175.413C139.914 175.455 139.705 176.482 139.533 176.807C141.659 176.999 143.9 177.337 146.02 177.305C149.597 177.277 153.183 177.309 156.767 177.229C160.35 177.149 163.876 175.86 167.458 175.705C171.04 175.55 174.648 176.239 178.22 175.987C181.807 175.743 185.384 175.364 188.979 175.142C192.574 174.92 196.119 174.101 199.707 173.894C203.295 173.687 206.917 173.994 210.505 173.787C214.928 173.531 219.32 172.522 223.759 172.273C228.197 172.025 232.626 172.03 237.066 171.819C240.386 171.67 243.745 172.573 247.074 172.447C250.402 172.32 253.683 171.081 257.013 171.029C261.336 170.948 265.674 171.538 269.927 172.033C274.181 172.528 278.428 173.389 282.599 174.528C282.794 174.584 282.55 174.708 282.835 174.732C282.42 170.215 285.728 166.847 287.291 162.913L287.285 162.966ZM138.146 105.038C138.875 101.578 139.559 98.097 140.183 94.6249C140.808 91.1527 141.506 87.6415 141.906 84.137C142.443 79.4419 142.516 74.6749 142.806 69.9554C143.044 66.2081 143.438 62.4796 143.631 58.7482C143.824 55.0168 144.375 51.2699 144.501 47.525C144.655 43.055 143.823 38.5623 143.917 34.1011C144.011 29.6399 144.86 25.1843 144.887 20.7096C144.907 17.5796 143.717 14.4692 143.549 11.306C143.382 8.14286 143.631 5.26913 143.269 2.08791C138.321 2.63171 133.616 2.66217 128.673 4.05736C128.754 4.66803 129.097 4.64544 129.146 5.16718C129.491 8.22929 129.56 11.3274 129.905 14.3895C130.25 17.4516 129.954 20.5804 130.276 23.6505C130.652 27.0779 131.027 30.5053 131.395 33.9478C131.764 37.3903 132.146 40.8026 132.499 44.238C133.019 49.4697 133.443 54.7111 133.836 59.9381C134.127 63.9351 135.597 67.8609 135.873 71.8507C136.148 75.8405 135.5 79.9108 135.672 83.9253C135.87 88.1186 136.165 92.3022 136.229 96.5058C136.294 100.71 136.851 104.925 136.586 109.121C136.561 109.644 136.057 110.163 136.053 110.679C136.144 110.722 135.55 110.533 135.64 110.576C136.082 108.624 137.726 106.981 138.138 105.015L138.146 105.038ZM175.353 187.412C178.826 188.388 182.044 189.668 185.216 191.24C188.388 192.812 191.337 194.741 194.381 196.622C195.654 197.408 197.084 197.899 198.283 198.761C201.51 201.116 204.628 203.586 207.848 205.956C211.068 208.327 214.018 210.994 217.172 213.426C220.326 215.858 224.054 217.582 227.128 220.105C230.202 222.628 232.701 225.821 235.659 228.511C236.368 229.16 237.812 228.919 238.572 229.499C242.006 232.082 245.215 234.983 248.664 237.572C252.113 240.161 255.706 242.523 259.183 245.052C262.41 247.408 265.719 249.746 268.524 252.604C268.899 252.984 268.858 253.5 269.437 253.995C270.918 251.408 272.927 249.07 274.393 246.512C273.108 245.481 271.682 244.161 270.478 243.112C266.677 239.783 262.962 236.349 259.088 233.096C255.739 230.296 252.426 227.457 249.019 224.739C245.612 222.022 241.45 220.278 237.956 217.667C234.462 215.056 231.468 211.777 227.88 209.288C224.291 206.799 220.595 204.499 216.913 202.168C213.231 199.838 209.211 198.105 205.413 195.942C202.417 194.231 199.624 192.247 196.509 190.905C193.395 189.563 189.941 189.095 186.683 188.055C183.426 187.015 180.243 185.973 176.889 185.257C173.316 184.492 169.876 182.941 166.276 182.312C166.241 182.387 166.377 182.489 166.342 182.564C169.456 183.869 172.129 186.498 175.36 187.397L175.353 187.412ZM198.325 190.618C201.853 192.377 205.321 194.182 208.719 196.137C212.116 198.093 215.399 200.253 218.702 202.367C222.006 204.482 225.477 206.361 228.694 208.62C231.911 210.878 234.991 213.312 238.15 215.653C241.827 218.387 245.212 221.463 248.785 224.297C252.359 227.13 256.501 229.308 259.966 232.293C263.431 235.277 266.291 238.918 269.603 242.071C271.054 243.458 272.883 243.768 274.453 245.174C275.801 243.336 277.495 242.604 279.256 241.497C280.324 240.838 281.033 239.806 281.886 238.861C283.927 236.612 285.892 234.327 287.865 232.027C287.996 231.868 288.331 232.137 288.482 231.894C285.012 230.052 281.859 227.658 278.398 225.838C274.936 224.018 271.459 222.191 268.005 220.356C264.551 218.522 261.075 216.732 257.598 214.905C254.333 213.178 251.053 211.444 247.73 209.837C244.408 208.231 240.558 207.742 237.193 206.226C233.828 204.711 230.811 202.418 227.425 200.947C224.038 199.477 220.58 198.158 217.179 196.717C214.118 195.419 210.831 194.716 207.734 193.53C204.638 192.344 201.697 190.752 198.516 189.785C198.373 189.736 198.225 190.479 198.082 190.43C198.061 190.475 198.388 189.429 198.367 189.475C198.534 189.59 198.121 190.503 198.31 190.611L198.325 190.618ZM174.795 179.134C179.101 178.97 183.392 178.8 187.692 178.726C191.993 178.652 196.283 178.795 200.595 178.893C204.907 178.991 209.189 178.761 213.49 179.038C217.365 179.28 221.214 179.732 225.076 180.079C228.938 180.426 232.756 181.177 236.598 181.606C240.439 182.036 244.417 181.588 248.254 182.145C252.735 182.784 257.027 184.332 261.461 185.226C265.895 186.12 270.532 186.039 274.912 187.166C279.291 188.293 283.54 189.894 287.843 191.261C290.573 192.126 293.327 192.707 296.201 193.621C296.186 193.263 295.692 193.566 295.595 193.262C294.225 189.087 292.584 185.173 289.796 181.769C288.929 180.713 288.228 179.422 287.192 178.526C286.552 177.965 285.79 177.624 285.283 176.978C284.483 175.972 283.173 175.501 282.017 175.251C278.324 174.429 274.587 173.662 270.85 173.207C267.113 172.753 263.302 173.667 259.508 173.722C256.238 173.765 252.963 172.957 249.694 173.075C246.426 173.193 243.167 173.445 239.906 173.585C234.22 173.817 228.58 174.772 222.895 175.078C219.016 175.277 215.117 174.969 211.238 175.167C207.358 175.366 203.541 176.333 199.654 176.547C195.767 176.76 191.898 176.742 188.026 176.963C184.438 177.171 180.805 176.341 177.226 176.607C173.646 176.874 170.152 178.252 166.572 178.481C164.461 178.61 162.338 177.866 160.21 177.914C165.071 178.492 169.937 179.332 174.832 179.133L174.795 179.134ZM122.146 5.75687C120.554 6.7037 119.064 7.90217 117.55 8.99664C116.602 9.67512 115.732 10.8896 115.595 12.0803C115.433 13.5553 115.461 15.1008 115.486 16.5717C115.513 17.7661 115.825 19.0215 116.097 20.2029C117.019 23.9991 117.628 27.8694 118.572 31.6576C119.515 35.4457 121.358 39.0122 122.198 42.8251C123.129 47.0691 123.049 51.5001 123.302 55.8116C123.59 60.6751 125.463 65.2715 126.509 69.9761C127.555 74.6807 128.52 79.4021 129.916 84.0316C130.899 87.2662 131.943 90.5292 132.577 93.8388C133.211 97.1484 133.645 100.53 134.041 103.875C134.392 106.847 134.466 109.855 134.982 112.869C135.059 112.314 135.467 111.842 135.499 111.266C135.79 106.584 135.872 101.877 135.842 97.2091C135.812 92.5416 135.573 87.8489 135.326 83.1712C135.058 78.1878 134.894 73.1797 134.529 68.2059C134.295 65.104 132.891 62.0954 132.635 59.0015C132.379 55.9075 132.995 52.7268 132.717 49.6408C132.441 46.6294 132.015 43.6214 131.716 40.618C131.417 37.6146 130.5 34.6699 130.171 31.6523C129.73 27.6213 129.781 23.5271 129.324 19.489C128.868 15.4509 127.63 11.505 127.173 7.46696C127.044 6.37188 127.537 5.68116 127.368 4.16122C125.477 5.07739 123.694 4.86331 122.161 5.76401L122.146 5.75687ZM241.133 40.3382C240.898 39.858 240.566 39.35 240.272 38.9159C239.438 37.7096 237.836 36.879 236.378 37.1133C235.596 37.2428 234.885 37.8488 234.104 37.9783C232.765 38.2323 231.31 38.3021 229.875 38.5658C229.41 39.1587 228.475 39.7697 227.856 40.4931C225.613 43.0529 224.253 46.3622 222.23 49.0814C220.207 51.8006 217.607 54.1368 215.637 56.8996C213.168 60.3682 211.586 64.4593 209.079 67.8914C206.571 71.3235 203.73 74.5241 201.154 77.9054C198.578 81.2868 196.185 84.8284 193.555 88.1661C190.926 91.5038 188.222 94.8059 185.524 98.0928C182.826 101.38 179.878 104.456 177.112 107.692C174.346 110.928 171.061 113.698 168.234 116.868C165.014 120.481 161.679 123.984 158.397 127.53C158.018 127.942 157.856 129.066 157.668 129.698C158.225 129.185 159.281 128.668 159.822 128.148C162.542 125.518 164.474 122.054 167.216 119.416C169.958 116.778 173.305 114.813 176.032 112.168C178.758 109.522 181.402 106.819 184.129 104.174C186.856 101.529 189.17 98.4669 191.89 95.8368C194.609 93.2066 197.711 90.9413 200.43 88.3112C203.15 85.681 205.342 82.4875 208.069 79.8422C210.796 77.1969 213.638 74.6984 216.334 72.0389C219.031 69.3793 222.469 67.4576 225.157 64.7759C227.846 62.0941 229.741 58.6309 232.452 55.9785C235.931 52.562 239.801 49.6073 243.32 46.302C242.411 44.3953 242.073 42.2965 241.133 40.3382V40.3382ZM228.091 34.9532C227.849 34.4881 227.486 33.9659 227.163 33.5548C226.289 32.5137 224.57 31.8127 223.321 32.4232C222.095 33.0258 221.128 34.2126 219.98 34.9627C218.934 35.6509 217.732 36.3201 216.702 37.0153C215.379 39.3454 213.735 41.6154 212.339 43.9845C210.439 47.2237 209.312 50.9387 207.344 54.1272C205.377 57.3157 202.705 60.0792 200.677 63.2392C198.648 66.3992 197.522 70.1514 195.434 73.2829C193.345 76.4143 190.923 79.3142 188.781 82.402C186.639 85.4899 184.702 88.73 182.522 91.7813C180.342 94.8326 178.102 97.8554 175.861 100.878C173.621 103.901 171.168 106.749 168.897 109.758C166.699 112.69 163.939 115.172 161.642 118.002C159.345 120.832 157.018 123.647 154.637 126.419C152.257 129.191 149.853 131.934 147.382 134.626C144.91 137.317 142.338 139.907 139.79 142.526C137.242 145.145 135.466 148.553 132.841 151.099C132.498 151.435 131.52 151.121 131.191 151.464C131.148 151.518 131.366 151.916 131.263 152.329C131.974 151.723 132.118 150.794 132.616 150.364C135.724 147.733 139.101 145.432 142.086 142.669C145.072 139.906 147.469 136.551 150.341 133.678C153.212 130.805 156.205 128.065 158.992 125.097C161.779 122.129 165.306 119.862 168.017 116.821C170.727 113.78 172.539 109.983 175.174 106.869C177.808 103.755 180.702 100.912 183.298 97.7617C185.814 94.7028 188.33 91.644 190.8 88.5264C193.27 85.4089 195.467 82.1256 197.868 78.9573C200.27 75.789 202.437 72.4915 204.793 69.3018C207.149 66.112 209.695 63.0675 212.021 59.8635C214.347 56.6595 216.347 53.2089 218.634 49.9684C219.96 48.1014 221.892 46.669 223.324 44.8892C225.191 42.5768 227.672 40.6092 229.68 38.234C229.235 37.3402 228.665 35.889 228.135 34.9L228.091 34.9532ZM161.349 171.398C165.4 170.837 169.449 170.201 173.492 169.617C177.534 169.034 181.603 168.629 185.663 168.128C188.724 167.746 191.741 167.066 194.797 166.773C197.853 166.481 200.95 166.375 204.021 166.089C209.261 165.591 214.54 165.518 219.771 164.96C223.899 164.51 227.941 163.224 232.081 162.982C236.221 162.74 240.388 163.379 244.531 163.287C247.607 163.225 250.664 161.992 253.746 161.878C256.829 161.764 259.919 162.024 263.017 161.955C266.825 161.87 270.618 161.501 274.411 161.446C278.204 161.391 282.036 161.41 285.825 161.482C288.732 161.544 291.121 160.826 293.7 159.939C294.849 159.54 296.083 158.96 296.574 157.843C297.291 156.169 297.716 154.136 297.88 152.108C297.221 152.055 296.151 151.624 295.547 151.652C292.039 151.768 288.514 151.802 285.023 151.999C279.771 152.288 274.592 153.831 269.348 154.142C265.738 154.357 262.078 153.7 258.485 153.997C254.891 154.294 251.302 154.777 247.711 155.186C244.12 155.595 240.641 156.666 237.06 157.209C232.75 157.851 228.378 158.076 224.101 158.843C219.823 159.611 215.675 161.161 211.398 161.966C207.122 162.771 202.802 163.353 198.503 164.129C194.589 164.829 190.48 164.42 186.551 165.076C182.622 165.731 178.889 167.495 174.969 168.21C169.434 169.215 163.888 170.049 158.394 171.165C158.403 171.262 158.376 171.046 158.401 171.15C159.377 171.038 160.411 171.546 161.379 171.412L161.349 171.398ZM270.255 82.4406C266.462 84.1761 262.758 86.1934 259.113 88.2019C255.468 90.2104 251.808 92.2118 248.172 94.2799C244.536 96.348 241.101 98.7327 237.465 100.801C233.829 102.869 230.122 104.774 226.486 106.842C222.85 108.91 219.042 110.639 215.398 112.684C211.754 114.73 208.592 117.632 204.963 119.685C201.334 121.738 197.309 123.105 193.673 125.173C190.044 127.226 186.968 130.26 183.316 132.321C179.665 134.382 175.872 136.117 172.243 138.17C168.614 140.223 165.111 142.52 161.466 144.566C157.822 146.612 154.17 148.635 150.542 150.688C146.913 152.741 143.121 154.551 139.492 156.604C138.01 157.437 136.097 157.733 134.732 158.825C135.257 158.574 136.291 159.081 136.816 158.83C140.266 157.117 143.7 155.36 147.141 153.625C150.583 151.89 154.072 150.251 157.507 148.531C160.942 146.811 163.89 144.049 167.333 142.351C170.775 140.653 174.647 139.767 178.128 138.106C181.689 136.391 185.204 134.579 188.774 132.886C192.344 131.193 195.67 128.96 199.233 127.282C202.795 125.604 206.615 124.398 210.192 122.727C213.77 121.056 217.026 118.698 220.611 117.012C224.196 115.326 227.861 113.862 231.438 112.192C232.739 111.587 234.417 111.789 235.711 111.2C239.895 109.261 243.646 106.324 247.861 104.437C248.542 104.131 249.193 104.198 249.702 103.59C250.357 102.791 251.321 102.157 252.196 101.555C256.331 98.7433 260.343 95.7631 264.47 92.967C265.743 92.1095 266.848 91.0615 268.059 90.1008C268.969 89.3858 269.95 88.8336 270.699 87.9504C272.213 86.1538 272.012 85.1724 270.942 82.7838C270.565 82.9565 270.617 82.2607 270.233 82.4486L270.255 82.4406ZM143.46 171.387C147.013 170.59 150.541 169.69 154.061 168.804C157.582 167.919 161.149 167.13 164.661 166.185C168.173 165.24 171.571 163.909 175.075 162.942C178.579 161.975 182.108 161.149 185.612 160.182C189.116 159.215 192.703 158.619 196.23 157.681C199.794 156.743 203.113 154.876 206.693 153.982C210.274 153.088 214.028 152.959 217.616 152.087C221.204 151.215 224.537 149.281 228.126 148.446C231.715 147.611 235.402 147.156 238.991 146.358C242.581 145.561 246.143 144.51 249.749 143.758C253.83 142.897 257.88 141.985 261.936 140.983C265.992 139.981 270.099 139.262 274.155 138.297C277.365 137.524 280.695 137.471 283.954 136.943C287.214 136.414 290.402 136.037 293.717 135.941C293.813 135.931 294.283 135.562 294.536 135.496C295.144 133.309 296.836 132.151 298.537 130.701C299.702 129.719 299.943 128.467 300.713 126.836C299.76 126.94 299.62 126.726 298.845 126.803C295.096 127.156 291.349 127.583 287.593 127.988C282.959 128.495 278.494 129.895 273.968 130.915C269.442 131.934 264.843 132.68 260.408 134.093C256.692 135.274 253.209 137.175 249.509 138.363C245.808 139.551 242.021 140.532 238.305 141.713C234.589 142.894 230.553 143.074 226.845 144.277C223.137 145.48 219.775 147.751 216.067 148.955C212.359 150.158 208.531 150.99 204.824 152.194C200.508 153.59 196.144 154.852 191.803 156.107C187.461 157.362 183.147 158.833 178.79 160.043C174.432 161.253 170.125 162.709 165.792 163.986C162.126 165.061 158.388 165.899 154.73 166.997C151.073 168.094 147.52 169.556 143.855 170.668C140.19 171.781 136.323 172.189 132.665 173.286C132.168 173.439 131.415 173.157 130.919 173.348C130.928 173.407 131.333 174.504 131.342 174.563C135.397 173.524 139.395 172.292 143.475 171.394L143.46 171.387ZM261.544 248.734C257.966 246.066 254.331 243.48 250.724 240.835C247.117 238.189 243.612 235.444 240.071 232.737C235.93 229.581 231.854 226.363 227.88 223.009C224.447 220.113 221.072 217.133 217.544 214.359C214.016 211.584 210.611 208.591 206.915 206.014C204.51 204.343 201.729 203.232 199.332 201.583C196.139 199.391 193.292 196.661 190.04 194.553C189.76 194.365 189.109 195.313 188.792 195.163C188.697 195.285 188.826 194.7 188.725 194.836C188.951 194.943 189.312 194.726 189.502 194.871C192.817 197.471 196.037 200.193 199.213 202.93C202.389 205.667 205.318 208.731 208.348 211.622C211.378 214.512 213.875 217.944 216.766 221.009C219.658 224.074 222.431 227.156 225.162 230.367C227.693 233.335 230.349 236.234 232.998 239.11C235.647 241.986 238.259 244.9 240.9 247.754C243.778 250.887 247.589 252.982 251.029 255.512C252.442 256.549 253.428 258.252 254.977 259.039C257.75 260.441 260.828 260.492 263.829 259.73C266.116 259.149 267.22 257.75 268.326 255.447C265.807 253.352 264.148 250.648 261.566 248.726L261.544 248.734ZM5.24574 249.325C7.50328 246.735 9.81575 244.263 12.2721 241.878C14.7284 239.492 17.3461 237.313 19.932 235.044C22.606 232.706 25.09 230.223 27.9493 228.157C30.8087 226.092 33.808 224.277 36.8519 222.446C39.6965 220.724 42.7122 219.305 45.5337 217.554C48.3552 215.803 50.6732 213.241 53.4947 211.49C53.9661 211.196 54.9274 211.428 55.398 211.097C55.3359 210.994 55.0994 211.103 55.0373 211C54.3578 211.344 53.5962 211.354 52.9088 211.675C51.9554 212.13 51.1111 212.784 50.1728 213.245C49.5521 213.543 48.9758 213.825 48.394 214.196C45.4194 216.115 42.3126 217.805 39.338 219.724C36.3634 221.643 33.0625 223.001 30.0417 224.862C25.8939 227.427 21.591 229.734 17.3509 232.181C13.3466 234.482 9.38925 236.878 5.40002 239.186C4.18325 239.885 3.15053 241.133 2.7469 242.457C2.02357 244.848 3.0785 247.267 3.64819 249.696C3.68968 249.882 3.26141 250.437 3.43332 250.777C3.99581 250.211 4.80153 249.835 5.23861 249.34L5.24574 249.325ZM82.5864 192.085C84.4303 191.036 86.2502 189.919 88.0861 188.848C90.9609 187.14 94.0109 185.922 97.0958 184.59C101.282 182.764 105.273 180.531 109.571 178.979C113.468 177.569 117.437 176.36 121.326 174.929C125.416 173.426 129.655 172.27 133.681 170.627C138.448 168.668 142.764 165.629 147.491 163.596C150.221 162.429 153.283 162.047 156.036 160.91C156.613 160.666 156.428 159.729 156.947 159.254C156.576 159.337 156.819 159.84 156.455 159.945C152.75 160.946 149.242 162.392 145.641 163.682C142.04 164.973 138.478 166.337 134.931 167.746C130.867 169.353 126.699 170.708 122.651 172.36C118.602 174.011 114.308 175.048 110.267 176.722C106.227 178.396 102.202 180.114 98.1849 181.855C93.036 184.076 88.2049 187.149 83.2687 189.859C82.3241 190.373 81.3766 191.089 80.4941 191.706C80.5561 191.809 80.7839 191.64 80.8309 191.736C81.2889 191.509 82.1444 192.356 82.5793 192.1L82.5864 192.085ZM113.076 20.0315C113.9 25.1294 115.023 30.258 116.982 35.0617C118.104 37.8077 119.056 40.6396 120.156 43.3935C120.267 43.6674 121.104 43.6935 121.519 43.871C120.451 39.5254 119.531 35.1392 118.463 30.7936C117.395 26.448 116.573 21.7758 115.49 17.4231C113.929 18.0704 112.812 18.5585 113.054 20.0394L113.076 20.0315ZM97.8009 180.048C97.7389 179.945 97.1971 179.098 97.1501 179.002C96.2953 179.522 95.2602 179.993 94.4054 180.513C94.4897 180.608 95.0059 181.313 95.083 181.424C95.9076 180.89 96.9612 180.575 97.7858 180.041L97.8009 180.048ZM129.844 161.003C129.844 161.003 130.35 161.962 130.382 162.051C131.01 161.739 131.818 161.474 132.446 161.161C132.399 161.065 131.958 160.358 131.911 160.262C131.298 160.582 130.456 160.683 129.844 161.003V161.003ZM159 179.226L158.983 180.16C159.297 180.16 159.636 180.302 159.95 180.302C160.002 180.309 160.098 179.911 160.15 179.917L160.086 179.388C159.72 179.381 159.344 179.24 158.993 179.241L159 179.226Z" fill="#CEB89C"/>
</svg>
