<svg width="53" height="58" viewBox="0 0 53 58" fill="none" xmlns="http://www.w3.org/2000/svg" aria-labelledby="title" role="img" ><title id="title">Uchi Icon</title>
<path d="M20.5794 56.9982C20.3803 57.3378 20.1885 56.8522 20.0884 56.7548C19.6069 56.8522 18.8314 56.558 18.5374 56.9982C18.3888 57.0469 18.3435 56.8522 18.3435 56.7548C18.1465 56.7062 17.8567 56.8522 17.764 56.6543V57.4373H18.1992V57.5346H18.922L18.8303 57.2394C18.8777 57.1442 18.922 57.1442 19.021 57.1442C19.2149 58.0192 20.5278 57.4839 21.2517 57.632C21.356 57.3378 21.0578 57.3918 21.1558 57.0924C21.1073 57.0215 21.1315 56.9728 21.1842 56.9495H20.8681C20.7227 57.1939 20.6753 56.6543 20.5794 56.9982ZM19.5089 57.5346H19.3645V57.3378H19.5089V57.5346ZM21.1863 56.9495H21.4013C21.3275 56.9252 21.2411 56.9252 21.1863 56.9495ZM52.9453 47.1095C53.136 46.0821 52.6007 45.059 52.9453 44.4241H52.6998V44.2295C52.7482 44.1321 52.8905 44.1787 52.9453 44.1787C52.8905 43.8422 53.136 43.2084 52.6998 43.2084L52.9453 42.9132C52.6007 42.3313 53.1876 41.6964 52.8905 41.1611H52.9453C52.9453 40.286 52.9959 39.0164 52.8905 38.5773H52.9453L52.8905 35.1682H52.9453C52.9453 34.0953 52.9959 33.6054 52.8905 32.7293H52.9453C53.0896 31.0724 52.6998 29.8048 52.8462 28.15C52.9959 27.4189 52.5101 26.8825 52.8462 26.2476C52.6007 24.4955 52.7472 22.4978 52.6998 20.5954L52.8462 20.4515C52.8905 19.7183 52.6608 19.0856 52.8462 18.5036C52.9959 17.0869 52.5544 15.9664 52.8462 14.6502C52.6608 13.8725 52.6608 12.7001 52.8462 11.9256L52.9453 12.1161C52.8905 10.9945 52.9959 10.4158 52.7999 9.43706H52.8473C52.8915 9.04769 52.7482 8.56098 52.9463 8.2679H52.7008C52.7493 8.12188 52.6018 7.83197 52.8473 7.83197C52.8915 7.83197 52.8915 7.93037 52.8915 7.97904C53.1887 7.93037 52.6018 7.53783 52.9463 7.3442C53.0422 6.46707 52.8473 5.73594 52.6618 5.05032C52.6618 5.15295 52.7008 5.25135 52.6018 5.29579L52.3626 5.00376C52.7999 4.71385 52.0739 4.46732 52.3626 4.22291C51.8769 3.933 51.684 3.05692 51.7789 2.56809C51.8779 1.8867 51.1962 1.8867 50.957 1.49839C51.0055 1.34814 50.9064 1.15346 51.0508 1.00956L51.7789 1.49839C51.6345 1.20425 51.1013 0.912219 50.957 0.912219C51.0055 0.714361 50.7621 0.619135 50.6662 0.521793V0.619135C50.7621 0.812761 50.565 1.01062 50.3733 0.912219L50.2753 0.619135C50.3237 0.570464 50.3237 0.570464 50.3733 0.570464L50.0319 0.278437C49.8401 0.13454 49.0646 -0.0157052 49.1141 0.521793C48.8675 0.329224 48.5314 0.377896 48.4355 0.0329659C47.7991 0.42445 47.1195 -0.161718 46.5368 0.082695C46.0995 0.13454 45.7624 0.278437 45.2292 0.0329659C45.0817 0.329224 44.9373 -0.0157052 44.7413 0.0329659V0.13454C44.7413 0.278437 44.5949 0.278437 44.4969 0.278437C44.4495 0.230824 44.4495 0.13454 44.4495 0.082695H44.2092V0.0297917C44.2092 0.175805 43.8183 0.175805 43.8183 0.0297917C42.8974 -0.114105 42.0766 0.32605 41.5392 0.0297917C40.1347 -0.0188794 38.9672 0.131366 37.5616 0.131366C36.4963 0.61596 35.2245 0.22765 34.4522 0.32605V0.276321C34.0149 0.176863 33.7272 0.421276 33.4838 0.421276V0.276321H33.3405V0.327108C33.0961 0.327108 32.369 0.421276 31.8822 0.375779C29.8929 0.767264 28.8761 0.176863 27.4684 0.422334V0.374721C26.9352 0.276321 26.5411 0.61596 26.1565 0.374721C25.6192 0.61596 24.6993 0.421276 24.1651 0.568347V0.374721C23.7352 0.276321 23.3917 0.61596 23.0977 0.374721C22.7131 0.766206 21.9344 0.131366 21.7374 0.61596C21.4972 0.374721 20.8681 0.61596 20.6742 0.518618L20.3792 0.61596C20.3792 0.567289 20.3318 0.567289 20.3318 0.518618H19.7934C19.8471 0.809587 19.6048 0.861432 19.4583 0.956658L19.3624 0.518618L18.9209 0.711186C18.5827 0.374721 18.1454 0.909045 17.7629 0.61596L17.6186 0.861432C17.4711 0.568348 17.3762 0.957716 17.176 0.809587V0.617019C16.8863 0.568347 16.7925 0.664631 16.6924 0.86249L16.5449 0.617019C16.4005 1.15134 16.0117 0.617019 15.7188 0.617019C15.7188 0.712244 15.7736 0.86249 15.6724 0.957716L15.2836 0.712245V0.810645C15.0897 0.86249 14.9412 0.766206 14.7968 0.617019C14.4617 1.39576 15.4807 0.810645 15.6208 1.15134C16.7925 0.957716 18.2992 0.957716 19.4583 1.15134L19.6543 0.910103C19.6543 0.958774 19.7006 0.958774 19.7006 1.0085C20.7217 1.05717 21.8354 0.910103 22.7131 1.1524L22.9017 0.811703C23.0977 1.20425 23.9702 1.00956 24.4106 0.958774C24.5086 0.888942 24.6245 0.884709 24.7499 0.903755L24.6993 0.713303L24.752 0.811703V0.903755C25.0734 0.951367 25.4695 1.15663 25.8204 0.911161C28.6295 1.29841 32.0782 1.1524 35.038 1.00956C36.0527 1.44548 37.1211 0.768322 38.1421 1.15346C38.1421 1.10267 38.1927 1.05823 38.2338 1.00956C38.6795 1.00956 39.3539 1.05823 39.5509 1.00956C39.5994 1.05823 39.6468 1.10267 39.5994 1.15346C42.458 0.912219 45.5674 1.05823 48.5283 1.00956L48.72 1.15346C49.4955 1.00956 49.3512 1.44654 50.0793 1.29947C50.0298 1.88776 50.6114 1.74068 50.9033 2.03377L50.8063 2.17978L51.0476 2.32791C52.2625 3.29816 52.0191 5.29685 52.0707 7.10402C52.6576 7.63517 51.9748 8.31763 52.2119 9.09742C52.5986 10.0211 51.9201 11.2432 52.3089 11.9277C52.0191 12.3139 52.3594 12.9001 52.2119 13.2397C52.41 13.4355 52.0191 13.7762 52.3089 14.0185C51.9759 14.6523 52.4553 14.8025 52.2625 15.2384H52.2119L52.3089 15.5326C52.2625 15.5791 52.2625 15.631 52.2119 15.5791V17.1895C52.2119 17.5302 52.0707 18.5068 52.3089 18.9903C52.0191 20.1108 52.3594 21.7688 52.2625 22.2566H52.2119C52.1635 24.1114 52.3089 26.0582 52.0707 27.7638C52.3089 29.8091 52.1635 32.103 52.2119 34.2445C52.3594 34.9259 52.3594 35.9522 52.2119 36.5828C52.508 36.6823 52.1192 36.8769 52.2119 37.0716C52.2119 38.4397 52.1635 40.9209 52.2625 41.8954H52.2119C52.2625 42.9185 52.508 43.0666 52.41 44.184C51.9759 44.4802 52.3089 45.4092 52.2119 45.6991C52.508 45.7922 52.1192 45.9911 52.2119 46.1837C52.5523 46.5752 52.0191 46.8217 52.2119 47.3507C51.7757 47.5518 52.4553 47.7941 52.0707 47.9909V49.2542C52.3089 49.7917 52.1635 50.7598 52.2119 51.1566C51.9748 52.4728 52.2625 54.224 51.4849 55.2006C51.1488 56.0301 50.4691 56.7115 49.3512 56.6607C48.2849 56.5178 47.4567 57.3971 46.4894 56.7612V56.8109C44.3536 57.1506 41.3453 57.0045 39.5499 56.9548V56.8575H38.9187V57.0035C38.9187 57.1495 38.7691 57.0977 38.6785 57.0977C38.532 57.0035 38.7238 56.904 38.7238 56.8575C38.5752 56.9051 38.2865 56.7601 38.2865 57.0035C37.944 56.6596 37.4119 57.1992 37.217 56.9548V56.8575C36.8324 57.2913 36.4426 56.611 36.0527 57.0035C35.7113 56.611 35.3741 57.2913 35.038 56.8575C34.5512 57.2458 34.0655 56.6596 33.6313 56.9548V56.8575L33.3395 57.0035C33.095 56.8099 32.4122 56.8575 32.2205 56.9548V56.8575L28.8266 56.9548V56.8575C27.7581 56.9051 26.3536 56.8575 25.7172 56.9548V56.8575C25.2335 56.7115 24.9406 57.1992 24.6993 56.9548C24.458 56.7115 24.1229 57.0977 23.8247 57.0522V56.9548H21.4002C21.4982 57.1506 21.4487 57.3971 21.4487 57.6373H21.7385C21.7385 57.5865 21.6921 57.4426 21.7901 57.3971L22.0324 57.541L22.2242 57.2923C22.3233 57.3971 22.2242 57.541 22.2737 57.6383H25.577C25.7172 57.3442 26.009 57.7357 26.2029 57.6383C26.6897 57.4436 27.6601 57.4913 27.951 57.5875V57.6383C28.972 57.5875 30.0857 57.7357 30.9582 57.541C31.9771 57.7812 33.4343 57.4913 34.5027 57.7357C35.2234 57.3981 35.764 58.2266 36.5374 57.7357C37.3171 57.978 38.3307 57.8341 39.2085 57.8817C40.3254 58.2266 41.3443 57.6881 42.6087 57.8817C43.9089 57.6383 45.5137 57.7812 47.0226 57.7357C47.1153 57.541 47.4556 57.7357 47.6042 57.7357V57.5875C48.2343 57.8827 49.6399 57.2923 50.662 57.1516C51.8726 56.8585 52.2614 55.6407 52.6956 54.6154C52.744 52.3745 53.1318 49.6954 52.842 47.2079L52.9453 47.1095ZM26.8846 0.909045L26.6918 0.809587L26.7919 0.61596L26.9784 0.711186L26.8846 0.909045ZM50.0319 0.568347L49.9855 0.374721L50.0319 0.421276V0.568347ZM25.2356 57.5346H25.0386V57.3378H25.2356V57.5346ZM33.7293 57.3918L33.6819 57.2405L33.7293 57.2871V57.3918ZM45.2734 57.5346H45.0817C45.128 57.4849 45.2292 57.3907 45.2734 57.3378V57.5346ZM52.5554 8.55992H52.6998V8.75355H52.5554V8.55992ZM5.48229 0.909045L6.50226 1.15028V1.10055C6.69403 1.34603 6.93743 0.766206 7.18188 1.15134C7.23246 0.766206 7.66341 0.910103 8.00586 0.810645V0.617019C7.7614 0.617019 7.32729 0.0805789 7.23351 0.617019C7.28093 0.276321 6.93743 0.473121 6.89317 0.276321C6.74882 0.473121 6.35474 0.327108 6.06287 0.374721C5.92273 0.809587 5.81842 0.374721 5.48229 0.518618V0.663573H5.53182C5.7278 0.766206 5.48229 0.861432 5.48229 0.909045ZM9.41568 0.909045V0.861432C9.65908 1.05506 9.99942 0.711186 10.2892 0.711186V0.861432C10.5789 0.861432 10.8255 0.711186 11.2607 0.909045C11.2607 0.568348 11.6495 0.663573 11.7401 0.374721H11.306L11.5504 0.568347C11.3502 0.568347 11.306 0.809587 11.1616 0.664632V0.617019C10.6801 0.568347 10.0932 0.712244 9.75391 0.519676L10.0932 0.375779H9.46099L9.56003 0.664632C9.32085 0.712245 9.41568 0.712245 9.17123 0.664632C9.02687 0.568347 8.98051 0.473121 8.735 0.519676V0.910103C9.12486 1.05612 9.12486 0.664632 9.41568 0.909045ZM12.4218 1.00745C12.6189 0.909045 12.5693 0.518618 12.327 0.518618L12.5209 0.374721H11.8918C11.8908 0.809587 12.3807 0.664632 12.4218 1.00745ZM5.19675 0.519676H5.04818L5.19675 0.664632V0.519676ZM17.1781 56.7062H16.8399V56.6554C15.8695 56.7062 14.8 56.5591 13.9286 56.7559L13.8317 56.6554C13.2943 56.6067 12.6189 56.7062 12.327 56.6554C11.5957 56.7559 11.1627 56.5591 10.5789 56.7062V56.6554C9.65908 56.8532 8.8351 56.1718 8.15548 56.7559C8.00586 56.6554 8.20395 56.5591 8.24926 56.5136H7.96055C7.76035 56.9506 7.37892 56.1729 7.37892 56.7559C7.23246 56.7072 7.23246 56.4131 6.93637 56.5136C6.45695 56.7559 5.57923 56.5136 5.09349 56.7559C4.60985 56.3697 4.07669 56.5591 3.58778 56.3697C2.6205 56.8056 3.2506 55.8301 2.76169 55.3899C2.57203 55.2471 2.18217 55.1953 2.28227 54.7604C1.65006 54.3678 1.65006 53.4907 1.3603 52.8559C1.59632 52.0782 0.920916 51.4412 1.06527 50.6117H1.11163C1.11163 48.8596 1.06527 46.9106 1.11163 45.405H1.06527C1.06527 45.2061 0.823977 45.2061 0.969385 45.0093H1.01575C1.11163 44.33 0.823977 43.7914 1.01575 43.4063C0.823977 42.5281 0.8735 41.0637 0.969385 40.3337H1.01575C0.969385 39.9422 1.11163 39.4068 1.06527 39.265H1.11163L1.06527 38.3836C1.11163 38.044 1.20962 36.7246 1.01575 36.0485C1.01575 36.0485 1.06527 35.9977 1.11163 35.9977C1.06527 35.1703 1.21068 34.2424 1.01575 33.5599C1.55418 33.5123 0.8735 33.0224 1.26125 32.8298C1.26125 31.7559 1.11163 30.5402 1.3603 29.5689C0.969385 29.1277 1.55418 28.6843 1.31078 28.2992H1.3603C1.26125 27.0814 1.11163 25.6646 1.3603 24.4976C1.74805 23.6183 1.06527 22.738 1.46145 21.8651C1.11163 20.1606 1.65006 18.5512 1.46145 16.7525C1.11163 16.3113 1.70485 15.723 1.3603 15.2861C1.50255 14.411 1.11163 13.0969 1.26125 12.2166C0.823977 11.9277 1.59632 11.4876 1.01575 11.3426C0.823977 11.2432 0.823977 10.803 1.01575 10.7554L1.11163 10.949V10.8538C0.776562 9.88039 0.920916 8.5631 0.532108 7.58756C0.969385 7.24686 0.722824 5.92745 0.722824 5.68833H0.775508V4.76252C0.775508 4.41971 0.0442545 3.88539 0.676462 3.59124C0.775508 3.68859 0.676462 3.8346 0.722824 3.933C1.4604 4.51917 1.21068 3.44946 1.59527 3.29922C1.98724 3.05798 2.18112 2.66544 2.47509 2.32897C2.76064 2.61888 3.05356 1.78936 3.35175 2.08244V1.88881C3.83329 1.78936 4.99128 1.4476 5.23679 1.30053C5.14406 1.25503 5.04607 1.05929 5.09243 0.865664C4.94808 0.865664 4.89856 0.620193 4.8543 0.865664C4.60879 0.813819 4.2674 0.961948 4.17573 0.715419L4.60879 0.620193H4.07563L4.02927 1.10373C3.68788 1.05612 3.83434 1.00745 3.58778 1.00745V0.861432C3.29275 0.766206 3.2506 1.00744 3.10941 1.10055C2.57203 1.05612 2.52251 1.59467 2.18322 1.78618L1.98935 1.69096C1.74911 1.83697 2.08312 2.61571 1.55523 2.47181C1.40455 2.36812 1.5036 2.17661 1.46251 2.0306C1.11269 2.27183 0.480478 2.71305 0.534216 3.05375C0.19177 3.24737 0.298191 4.02822 0.19177 4.21973H0.1433C0 4.71068 0.387754 5.0482 0.1433 5.34446C0.343499 5.53914 -0.336124 6.16975 0.2434 6.26921C0.2434 6.31682 0.19177 6.36761 0.1433 6.36761C0.0463619 7.04689 0.342446 7.34315 0 7.87959C0.342446 9.38945 0.387754 11.4347 0.439384 12.8007H0.387754C0.2434 13.2366 0.632208 13.5773 0.387754 13.8725C0.632208 14.4544 0.342446 15.3834 0.587953 15.9177C0.971492 16.0637 0.387754 16.2108 0.534216 16.2108C0.67857 16.797 0.481532 17.5704 0.724931 18.0656C0.587953 18.5036 0.971492 18.8412 0.724931 19.1332H0.777615V19.5257C0.67857 19.8675 0.67857 21.717 0.777615 22.5941H0.724931C1.06738 22.9359 0.587953 23.2268 0.587953 23.6173L0.875608 23.2268C1.11374 23.9093 0.724931 24.9832 0.777615 25.7133C0.534216 26.0021 0.971492 26.2963 0.826085 26.7364C1.01785 26.9777 0.534216 27.4697 0.777615 27.7596C0.387754 27.9088 0.633261 27.3692 0.481532 27.2718V31.1242H0.724931V31.3158C0.67857 31.4184 0.534216 31.3655 0.481532 31.3655V32.0014C0.534216 32.049 0.679623 32.0014 0.724931 32.0987C0.2434 32.1442 0.633261 32.8277 0.440438 33.1229C0.679623 33.6065 0.1001 34.2413 0.481532 34.8264C0.2434 35.8496 0.481532 37.2145 0.2434 38.2355C0.777615 38.5297 0.00105365 39.1148 0.587953 39.4057C0.534215 39.5528 0.387754 39.3581 0.387754 39.3063C0.439384 39.5062 0.439384 39.6988 0.387754 39.8427C0.632208 40.4299 -0.193877 41.0616 0.587953 41.2087C0.587953 41.3547 0.633261 41.5494 0.534216 41.6499L0.2434 41.306L0.387754 41.7441C0.342446 41.9916 0.480478 42.089 0.2434 42.4741H0.587953V42.6699C0.0463619 42.8677 0.440438 43.4052 0.2434 43.7904C0.298191 44.0369 0.1433 44.4252 0.481532 44.4252C0.144354 44.6188 0.481532 45.0093 0.2434 45.4515H0.387754C0.480478 45.4515 0.480478 45.5954 0.480478 45.6949C0.439384 45.788 0.342446 45.7425 0.242346 45.7425V47.1106C0.342446 47.1106 0.439384 47.0577 0.480478 47.1571C0.533162 47.3031 0.439384 47.4005 0.387754 47.4492C0.387754 49.4447 0.2434 51.3957 0.67857 52.9067H0.586899C0.677516 53.2474 0.3867 53.9309 0.825031 54.0271C1.11269 54.7614 1.55523 55.4915 1.89135 56.2205C2.91342 56.4649 3.73529 57.1961 4.94913 57.1474C5.09349 56.8077 5.09349 57.341 5.33899 57.1474L5.19675 56.8543C5.23889 56.757 5.33899 56.8543 5.43804 56.8067C5.28842 57.487 6.16192 56.9506 6.35369 57.2881C6.35369 57.2416 6.40321 57.1961 6.40321 57.1463L6.64556 57.34C9.75286 57.486 13.7821 57.34 16.2088 57.4394V57.5368H17.3235C17.5659 56.9982 16.7946 57.0469 17.1781 56.7062ZM0.439384 4.41653L0.387754 4.21973L0.439384 4.31813V4.41653ZM0.533162 48.7612L0.480478 48.4723L0.533162 48.6183V48.7612ZM0.67857 50.6106L0.587953 50.3176L0.67857 50.5186V50.6106ZM0.67857 39.0164L0.587953 38.7233L0.67857 38.918V39.0164ZM0.67857 29.5668L0.587953 29.3679H0.777615L0.67857 29.5668ZM0.776562 29.0748L0.586899 28.7827L0.776562 28.9319V29.0748ZM0.586899 28.4928V28.1976H0.776562L0.586899 28.4928ZM0.776562 28.0516H0.586899V27.858H0.776562V28.0516ZM0.874554 34.8264L0.825031 34.6317L0.874554 34.7323V34.8264ZM1.74805 54.5128L2.18217 54.9001L2.32758 55.2915L1.74805 54.5128ZM2.76169 56.1221L2.47615 55.829L2.76169 55.9232V56.1221ZM15.8199 57.3918L15.7209 57.2405L15.8199 57.2871V57.3918ZM14.0751 0.909045L13.9739 0.711186L14.0751 1.00745V0.909045ZM24.7541 0.909045V0.902696H24.752L24.7541 0.909045ZM13.4913 0.861432C13.4428 0.861432 13.3459 1.00745 13.2943 1.00745H13.4913V0.861432ZM27.3693 2.0306L27.323 2.27183C26.7919 2.07821 25.8626 2.129 25.2841 2.17555C25.0386 2.17555 24.4127 2.32368 23.8743 2.27183C24.1672 2.56492 25.0386 2.41785 25.4316 2.36706V2.41785C26.0111 2.47075 26.7919 2.32368 27.2734 2.56492C28.149 2.36706 29.4546 2.41785 30.2374 2.47075C30.8191 2.32474 31.7885 2.6612 32.1277 2.17555C32.0319 1.88352 31.544 2.07715 31.2511 2.02954C31.0077 2.32368 30.2374 1.88352 30.1858 2.36706C30.0889 2.32368 30.1331 2.22422 30.1331 2.12794L29.8465 2.27078C29.7506 2.22316 29.7981 2.07715 29.7981 2.02954H27.3693V2.0306ZM36.785 2.66226V2.13005C36.0548 2.17767 35.2277 2.03165 34.6502 2.27289C34.4543 2.22528 34.0676 2.36812 33.9748 2.13005C33.6819 2.07927 33.2952 2.17767 33.4375 2.56598C33.8758 2.61465 34.1171 2.41891 34.3521 2.36812C34.7988 2.90667 35.9589 2.56598 36.785 2.66226ZM40.8596 2.56598C41.0566 2.22528 41.928 2.71305 41.8817 2.13005C40.9576 2.17767 39.7458 1.98087 39.1126 2.3258C38.6247 1.98087 37.7481 2.17767 37.0758 2.13005V2.66226C38.1948 2.47181 39.553 2.61465 40.8596 2.56598ZM7.85939 3.44629C6.35369 3.34789 5.28842 3.92982 4.07669 4.36681C3.24955 4.95192 3.10941 5.88196 3.05462 6.99822C2.76169 7.43943 3.10941 8.12082 2.91237 8.51231C3.29275 8.60859 2.76169 8.60859 2.91237 8.85406C3.10941 9.43706 2.57203 10.3639 3.00825 10.8982H2.91237L3.05462 11.3395C2.95768 11.4855 2.86706 11.2919 2.81965 11.24V11.4336C2.86706 11.4336 3.00825 11.386 3.05462 11.4844C2.71428 12.6504 3.20319 13.7243 3.05462 14.9919C3.2506 15.9167 3.40022 16.9398 3.15472 17.963H3.20319C3.29275 18.6444 3.2506 20.1055 3.35281 20.6896C2.95768 21.226 3.83434 21.7635 3.29275 22.2037C3.44026 22.4978 3.24955 23.0343 3.39917 23.2258C3.05356 23.9601 3.58672 23.9601 3.29275 24.5907C3.24955 26.929 3.39917 30.1921 3.15366 31.6543C3.53931 31.9009 2.86601 32.1939 3.29275 32.4352C3.10941 33.1695 3.10941 34.2868 3.29275 35.0687C2.95768 35.2613 3.39917 35.4084 3.29275 35.7014C2.95768 36.8717 3.39917 38.0884 3.35281 39.21H3.29275V40.4289C3.58778 41.3536 3.20319 41.9906 3.35281 42.9598C3.58778 43.3534 3.00825 44.4231 3.40022 45.1553C2.95768 45.6441 3.44132 46.0811 3.20319 46.5202C2.95768 47.2545 3.2506 48.0798 3.05462 48.8585C3.15472 49.104 3.15472 49.0066 3.40022 49.0532V49.2013C3.44132 49.3949 3.2938 49.3949 3.15472 49.3949V49.5409H3.20319C3.15472 49.7346 3.53931 49.687 3.35281 49.8351H3.15366C3.05356 50.5175 3.39917 51.1027 3.29275 51.5407H3.35281C3.29275 52.4665 3.93233 52.9045 4.51712 53.296L4.46655 52.4199C4.41386 52.5131 4.46655 52.6136 4.36645 52.657C4.17678 52.7575 4.2242 52.4676 4.03138 52.4676C3.97764 52.1734 3.68788 51.8835 4.03138 51.6878L4.32219 52.2697C4.46655 51.2487 4.32219 49.7864 4.46655 48.9569H4.51712C4.56349 48.8141 4.41281 48.4734 4.60985 48.3728L4.80478 49.1061C4.41386 49.4436 4.85535 50.3758 4.94913 50.8096H4.65726V50.9535C4.85641 51.6878 4.85641 52.7575 4.65726 53.4907C5.14512 53.7362 5.53182 53.9298 6.1145 54.0261C6.93743 54.6578 8.78136 54.2695 9.70228 54.3213C9.70228 54.1213 9.363 54.2187 9.56003 54.0261H9.75391C9.75391 54.0261 9.79817 54.0748 9.79817 54.1213L10.0932 54.0261C10.4377 53.9742 10.2892 54.5139 10.5789 54.4631C11.0162 54.2694 11.7401 54.4186 12.327 54.3668C12.8138 54.3202 13.6378 55.0006 13.8317 54.2187C13.8317 54.2694 13.8812 54.3213 13.8812 54.3668C13.9286 54.5128 14.3184 54.5128 14.3648 54.3668L14.5618 54.6091L14.8527 54.2176C14.8 54.6091 15.2404 54.3657 15.2868 54.6091C17.1318 54.5128 19.4604 55.2471 20.3813 54.9001C20.3339 54.5128 20.2875 55.0969 20.0884 54.8069V54.7593C19.216 54.9001 18.4436 54.5128 17.765 54.6567C17.4721 54.171 16.7946 54.7064 16.2098 54.5117C15.9169 54.2165 14.898 54.7064 14.9433 54.1192C15.3816 54.0716 15.7746 54.4165 16.155 54.1192C16.3025 54.4165 16.7419 53.9277 16.9832 54.2165C16.9832 54.17 16.94 54.0726 17.0306 54.024C17.2761 53.9277 17.2761 54.17 17.4215 54.2165C17.4215 54.1192 17.3773 53.9721 17.4721 53.8758C17.5195 53.7341 17.8578 53.7341 17.9041 53.8758C17.9041 53.8272 17.8567 53.6812 17.9558 53.6357C17.999 53.8758 18.3003 54.024 18.0537 54.2165C18.5837 54.4176 19.4594 54.4176 19.9967 54.2165C20.3329 54.6556 21.2517 54.3647 21.5446 54.8048C21.4002 54.9487 21.1558 54.8524 20.9598 54.8979C21.3033 54.8514 21.5446 55.245 21.8365 54.9487C21.9355 54.9974 21.8849 55.0937 21.9355 55.1921H22.9028V55.0461C22.9028 54.9487 23.0556 54.9487 23.1462 54.9487C23.1462 54.9487 23.1946 54.9974 23.1946 55.0461C25.185 55.2884 27.5621 55.0461 29.5515 55.2884C30.3312 55.0937 31.4471 55.0937 32.2215 55.2884C32.5155 55.1455 32.8053 55.3868 33.0961 55.0461C33.5787 55.4873 34.1656 54.7054 34.5048 55.2884C36.3962 55.2439 38.434 55.3868 40.2737 55.1921C40.2737 55.1921 40.3275 55.2439 40.3275 55.2884H43.381C44.2588 55.0461 44.8383 55.2439 45.6665 55.0937V55.1921L45.9531 55.0461C46.0036 55.0947 46.0532 55.0947 46.0036 55.1921C47.8476 55.1921 49.2542 54.4155 50.0298 53.1437C49.642 53.2939 49.4492 53.6801 48.915 53.733C48.7674 53.733 48.5283 53.6801 48.621 53.4875C48.9624 53.4875 48.9624 53.1923 49.3048 53.2939C49.4955 52.7543 50.0287 52.3184 50.1731 51.6846C50.1731 50.7524 50.1246 49.6351 50.2215 48.905C50.0782 47.7856 50.1731 47.5444 50.2215 46.1752C49.9286 45.5436 50.5144 44.7669 50.1731 44.0803C50.4165 42.5228 50.1246 40.3294 50.3701 39.0132C50.2226 38.4789 50.2226 38.2799 50.3701 37.698C50.3206 37.698 50.1731 37.7477 50.1731 37.6504C50.5619 37.0156 50.4165 35.7501 50.2721 35.0137L50.3701 34.8222C50.4691 33.944 50.2226 33.3599 50.1731 32.5791C50.3701 31.6088 50.2215 30.3868 50.2721 29.2652C50.0782 28.7288 50.6103 28.3923 50.2721 28.0008C50.3701 26.8793 50.1246 25.8085 50.2226 24.9282C50.4691 23.466 49.9834 21.9603 50.3701 20.496C50.1731 19.3236 50.3206 17.8646 50.2721 16.5949H50.0287C50.0782 16.4489 49.9297 16.2076 50.1731 16.2076C50.1731 16.2552 50.2215 16.306 50.2215 16.3505H50.271V16.0129L50.172 15.7177C50.172 14.3063 50.1235 12.1637 50.2205 10.8475H50.27L50.1709 9.09213C50.4143 8.26472 50.1709 7.33997 50.0266 6.51151C49.3027 4.70962 48.0372 3.15003 45.9057 2.85695V2.90456C45.0311 2.61253 43.4759 2.66014 42.4106 2.85695C42.5023 3.29287 42.2673 3.48755 42.1672 3.7817C42.0734 3.53834 42.1177 3.24526 42.1177 2.99978H41.7784V2.95217H39.4013C39.3518 3.15003 39.5024 3.48755 39.2538 3.53728C39.3054 2.85589 38.5299 3.2442 38.2317 2.95217C38.1906 3.09818 38.3307 3.39127 38.0895 3.44311C37.9904 3.34471 38.042 3.19658 38.042 3.05057C37.0252 3.14897 35.8588 3.44311 35.0348 3.2442V3.19658L34.5955 3.29181C34.449 3.39021 34.4037 3.19658 34.449 3.05057H34.2541C33.5744 3.34471 32.5102 3.05057 31.8264 3.29181C31.5377 3.2442 30.7611 3.09713 30.3702 3.2442V3.19658L28.9678 3.48649V3.29181H28.7707C27.4631 3.19658 26.6381 3.44206 25.4253 3.19658V3.2442C23.0492 3.05057 20.5225 3.53728 18.4373 3.19658C17.7587 3.44311 16.7872 3.19658 16.1076 3.34471C16.2551 3.39127 16.5396 3.2442 16.5396 3.48755C16.0528 3.73408 15.9106 3.24526 15.3753 3.44311C15.3753 3.48755 15.429 3.63568 15.3268 3.63568L14.7926 3.44311L14.937 3.58489C14.5998 3.48755 14.3121 4.07372 14.1646 3.53728L14.4038 3.44311C14.212 3.48755 13.9202 3.58489 13.8232 3.58489V3.44311H13.6293C13.4829 3.78064 13.4829 3.2442 13.2405 3.44311C13.0498 3.48755 12.2195 3.34471 11.8823 3.53728C11.8823 3.63568 11.9298 3.78064 11.8339 3.87904C11.6874 3.68118 11.3429 4.12451 11.1543 4.07372L11.2533 3.53728L10.8645 3.44311C10.6727 3.63568 10.2323 3.53728 9.99204 3.48755C9.6949 3.8801 9.55266 2.95217 9.2081 3.44311C9.16385 3.39127 9.11749 3.34471 9.16385 3.29287C9.0195 3.39127 8.63069 3.53728 8.53059 3.29287L8.33566 3.53728L7.95212 3.29287C7.96055 3.34789 7.91313 3.39444 7.85939 3.44629ZM3.35281 33.5578L3.29275 33.2647L3.35281 33.4118V33.5578ZM3.35281 46.8609V47.0079L3.29275 46.8154L3.35281 46.8609ZM3.35281 47.9316L3.29275 47.738L3.35281 47.7877V47.9316ZM3.35281 47.447L3.15366 47.3444L3.29275 47.155L3.44026 47.301L3.35281 47.447ZM3.44132 34.1397L3.40022 33.9472L3.44132 33.998V34.1397ZM3.64257 32.2934C3.68788 32.3389 3.78587 32.4362 3.78587 32.4881H3.64257V32.2934ZM3.93233 50.7101H3.73529V49.7356H3.93233V50.7101ZM3.93233 47.1095L3.8807 46.9095L3.93233 47.0079V47.1095ZM50.2753 36.0929V36.2368L50.2257 36.0464L50.2753 36.0929ZM50.1762 42.4254H49.9855V42.2308H50.1762V42.4254ZM50.1762 30.0503H49.9855V29.4768C50.0213 29.68 50.2626 29.7551 50.1762 30.0503ZM49.9855 28.9319L50.0319 28.9764V29.0748L49.9855 28.9319ZM50.0319 9.58307V9.68041L49.9855 9.48679L50.0319 9.58307ZM50.0319 27.7109H49.8896L49.9866 27.2708L50.0319 27.7109ZM49.9328 6.46601V6.65964L49.7442 6.36761L49.9328 6.46601ZM46.6843 46.8609L46.5905 46.5688L46.6843 46.7678V46.8609ZM46.6843 46.1774L46.5905 45.8853L46.6843 46.0324V46.1774ZM46.6843 45.4505H46.4915V45.059H46.6843V45.4505ZM46.3946 31.612H46.5379V32.0014H46.3946V31.612ZM46.3946 30.7835L46.6854 30.9264L46.5379 31.2195C46.4399 31.0724 46.3482 31.0227 46.3946 30.7835ZM47.365 49.3484H47.1701V49.0532C47.2185 49.1537 47.4598 49.105 47.365 49.3484ZM47.7064 50.6106L47.6537 50.3176L47.7064 50.5186V50.6106ZM48.6241 54.025V54.1203L48.5767 53.9287L48.6241 54.025ZM48.7696 23.2258L48.7221 22.9348L48.7696 23.1327V23.2258ZM48.7696 22.7877L48.7221 22.4978L48.7696 22.6407V22.7877ZM48.7696 22.0545C48.3323 21.864 48.9655 21.6196 48.5767 21.3287H48.7696V22.0545ZM48.7696 21.134H48.5767C48.6241 21.0821 48.7221 20.988 48.7696 20.988V21.134ZM48.6241 19.7183V19.8664L48.5767 19.6675L48.6241 19.7183ZM48.5767 19.2316L48.6241 19.3776V19.5247L48.5767 19.2316ZM48.8201 25.0837H49.0098V25.4689H48.8201V25.0837ZM48.8201 26.3471H49.0098V26.9787C48.9655 26.7872 48.7232 26.6878 48.8201 26.3471ZM48.4766 15.2839V14.4089H48.6241C48.6716 14.6015 48.5314 14.848 48.7696 14.8956C48.8201 15.0459 48.4756 15.2363 48.7696 15.3315C48.7696 15.5305 48.5767 15.6754 48.7696 15.8193C48.8201 16.6478 48.5767 17.4276 48.7696 18.1111C48.5304 18.1587 48.6705 18.5036 48.6241 18.693L48.5314 17.6276C48.288 17.7715 48.4355 18.1587 48.4355 18.455L48.3323 17.6699H48.4355C47.9962 16.798 48.9655 16.2108 48.4766 15.2839ZM47.9962 45.1563C48.3323 46.6175 48.1426 49.1548 48.1879 50.8085L48.0267 51.3418C48.0383 51.1598 47.7443 51.1735 47.9962 51.0011C47.6537 50.271 48.1879 49.396 47.9962 48.813C48.0436 48.813 48.092 48.7612 48.1426 48.7612C48.1426 48.667 48.1426 48.5189 47.9962 48.5189H47.8982C47.7991 47.3021 48.0425 46.1329 47.9962 45.1563ZM47.7064 19.3776V19.5247L47.6537 19.3268L47.7064 19.3776ZM47.5589 20.7446L47.6537 21.2779H47.5589V20.7446ZM47.6084 49.542V49.688L47.5589 49.4902L47.6084 49.542ZM47.4166 25.2753C47.4598 25.4202 47.6084 25.9545 47.3155 25.9545C47.365 25.7133 47.2185 25.3726 47.4166 25.2753ZM47.1701 42.2308L47.365 42.6688L47.0742 42.5249L47.1701 42.2308ZM47.1195 43.5491C46.7802 43.5988 46.8266 43.9882 46.7802 44.2781C46.4409 44.476 46.7328 43.9882 46.4925 43.9882H46.5379C46.6348 43.7893 46.5916 43.018 46.5916 42.4741C46.9762 42.6699 46.5905 43.5491 47.1195 43.5491ZM46.3946 22.1571C46.7328 22.2037 46.3946 22.3984 46.4409 22.6407C46.8276 23.7654 46.6348 25.4689 46.5916 26.7364H46.4925C46.6854 26.054 46.1522 25.5673 46.4925 24.9832C46.3946 24.0521 46.3482 23.1327 46.3946 22.1571ZM46.3946 27.0285C46.5916 27.3692 46.6337 27.8093 46.7802 28.1976C46.5379 28.6822 46.6854 29.4176 46.6854 30.0492C46.0995 29.3679 46.4915 28.0516 46.3946 27.0285ZM46.2007 14.1169V14.2597L46.1522 14.0661L46.2007 14.1169ZM46.4399 43.3026V43.5988C46.0995 43.7438 46.3935 43.3026 46.1512 43.3026H46.4399ZM46.0058 52.9056H46.4399V53.0527C46.3935 52.9056 46.0542 52.9056 46.0058 53.0527V52.9056ZM46.0995 54.8069V54.9508L46.0058 54.7593L46.0995 54.8069ZM6.8447 7.29553L6.69403 7.43837L6.64661 7.29553H6.8447ZM6.64661 5.39525H6.8447V5.58676L6.64661 5.39525ZM6.89212 12.2145C6.93743 13.19 7.04069 13.7254 6.84365 14.6502C6.84365 14.9464 7.32623 15.3315 6.89212 15.5305C6.98484 15.1379 6.74776 14.994 6.64661 14.6988C6.89212 14.0153 6.64661 12.8969 6.89212 12.2145ZM6.98484 5.8809L7.08705 6.07452V6.17081L6.98484 5.8809ZM6.93743 18.9396H6.79307V17.234C7.04174 16.9409 6.64766 16.6975 6.79307 16.3092H6.93743C7.18188 16.9409 6.79307 17.38 6.9859 17.8169C7.23246 18.2084 6.79202 18.4539 6.93743 18.9396ZM6.93743 19.8675H6.79307V19.4294C6.89212 19.5776 6.98484 19.6199 6.93743 19.8675ZM6.50226 53.4431H6.30733V53.2463H6.50226V53.4431ZM7.08705 20.3976C6.74882 20.5468 7.23246 21.4239 6.64661 21.2779C6.69297 20.8896 6.50226 20.3023 7.08705 20.3976ZM6.93743 24.6901V24.8838H6.79307V24.6901H6.93743ZM6.95007 28.8388C6.92162 28.5542 6.60025 28.3045 6.89212 28.0516C6.64661 27.5173 6.79202 26.7364 6.79202 26.1016H6.84365C6.5012 25.7133 7.18083 25.6181 7.13341 25.1737L7.18188 26.054H7.13341C7.31675 26.9343 7.01961 27.9067 6.95007 28.8388ZM7.51906 24.2987H7.37892V23.7654C7.57174 23.8574 7.51906 24.0521 7.51906 24.2987ZM7.13341 5.4873C7.08599 5.00059 7.32623 4.75935 7.23246 4.21973C7.08705 4.12662 6.93637 4.31813 6.93637 4.46415C7.08599 4.8059 6.93637 4.71068 6.89106 5.00059H6.64556C6.74776 4.75935 6.98379 4.61016 6.89106 4.21973C7.18083 4.21973 7.27987 3.98061 7.2314 3.63886C7.56963 3.63886 7.37786 4.0769 7.42423 4.31813C6.89212 4.80696 8.15548 5.34552 7.13341 5.4873ZM13.8317 53.4431H13.6378V52.1734C14.3184 52.4199 13.5861 52.9056 13.8317 53.4431ZM14.4112 54.025H14.2194V53.8282H14.4112V54.025ZM14.4112 53.6378H14.2194V53.3426H14.4112V53.6378ZM14.5092 52.6136L14.4628 52.4199L14.5092 52.4676V52.6136ZM15.6745 54.025L15.6229 53.8282L15.6745 53.8769V54.025ZM16.2614 53.8769C16.0602 53.7351 15.8684 53.4431 15.8684 53.1458C15.8684 53.4897 16.4996 53.3426 16.2614 53.8769ZM15.8684 43.5491H16.0128V43.8422L15.8684 43.5491ZM16.2614 40.0395V40.5791C16.0602 40.4765 16.1139 40.286 16.1139 40.0395H16.2614ZM16.1139 39.5528H16.2614L16.155 39.8427L16.1139 39.5528ZM16.1139 41.2087L16.2098 40.868L16.2614 41.7441C15.7757 41.6499 16.4511 41.3547 16.1139 41.2087ZM16.4016 42.0361V42.1832L16.1139 42.0361H16.4016ZM16.1139 39.2629C16.1139 39.064 15.9696 38.7233 16.2098 38.628C16.2614 38.7751 16.4016 39.2629 16.1139 39.2629ZM16.4016 45.8377H16.2098V45.6441H16.4016V45.8377ZM16.2614 45.3521C16.1139 45.3002 15.9685 45.0082 16.2098 44.9627H16.4016L16.2614 45.3521ZM16.7419 53.7827H16.45C16.5459 53.7351 16.5459 53.4897 16.7419 53.5859V53.7827ZM16.4016 44.2295V44.4241H16.2098C16.0602 43.7893 16.45 43.4994 16.3025 42.819C16.45 43.1079 16.4016 43.5491 16.7419 43.6486C16.645 43.8898 16.547 44.0834 16.4016 44.2295ZM16.7419 40.7696C16.5459 40.6691 16.8389 39.7951 16.5459 39.4555H16.7419C16.645 39.211 16.7935 39.1645 16.8873 38.9677C16.9832 39.2629 17.0844 40.3802 16.7419 40.7696ZM16.7946 38.1424H16.9832V38.8238C16.94 38.5773 16.6945 38.482 16.7946 38.1424ZM16.7946 48.3718L16.8884 48.2268C16.9832 48.2268 16.94 48.4194 16.9832 48.5178L16.7946 48.3718ZM17.0844 43.0169H16.7935V42.7207C16.9832 42.6699 17.1318 42.819 17.0844 43.0169ZM17.1781 48.7612L17.1318 48.5654L17.1781 48.6183V48.7612ZM16.8389 42.526C16.645 42.2308 16.9822 42.0361 17.0296 41.7906C16.9822 41.6964 16.8389 41.743 16.7935 41.743V40.9632C17.1307 40.8204 16.8389 41.2563 17.0844 41.2563H17.0296C17.1771 41.305 16.7419 42.1366 17.3246 41.6488C17.2266 42.0361 16.8884 42.1366 16.8389 42.526ZM17.0296 40.6691V40.4765H17.1771V40.6691H17.0296ZM17.3246 49.542L17.2761 49.2479H17.4215L17.3246 49.542ZM17.9041 49.4425L17.6649 50.1261C17.3235 48.8585 18.0537 48.2744 17.4711 47.155C17.8567 46.9571 17.3235 46.8154 17.5648 46.6165C17.6649 46.0811 17.5648 45.8377 17.6186 45.0579H17.7629C17.8557 45.9848 17.9031 46.9085 17.9031 47.9306H17.8557C17.765 48.1284 17.7113 49.0542 17.9041 49.4425ZM18.0548 40.9166C18.3888 40.6225 17.9568 40.722 18.2002 40.3802L18.2445 41.015L18.0548 40.9166ZM18.2002 42.1842V42.0371H18.3435L18.4436 41.4531C18.49 41.8901 18.5374 42.4254 18.7323 42.7693H18.6375C18.6786 42.9608 18.8777 43.7427 18.49 43.8411H18.3014V43.5481H18.49C18.1001 43.4042 18.4436 42.526 18.2002 42.1842ZM18.923 38.628C18.923 39.3063 19.0221 39.4047 18.8314 39.9887C18.8598 40.0448 18.903 40.0522 18.9536 40.049C18.8019 40.1083 18.8314 40.3749 18.8314 40.5781C18.49 40.4299 18.7323 39.8967 18.6375 39.5528C18.8314 39.5528 18.7323 39.4057 18.8777 39.4057C18.4436 39.3063 18.7323 38.7233 18.923 38.628ZM18.7323 46.6175L18.5374 46.5212L18.6375 46.3213C18.7323 46.371 18.6786 46.5212 18.7323 46.6175ZM18.49 54.025H18.3014C18.3446 53.9732 18.4436 53.8769 18.49 53.8282V54.025ZM18.49 53.5373H18.3014V53.2463H18.49V53.5373ZM18.49 53.0527H18.3014V52.5628H18.49V53.0527ZM18.7323 52.3681L18.6375 52.1734L18.7323 52.2686V52.3681ZM18.7323 47.3455C18.5374 47.3021 18.3014 46.9106 18.5374 46.8164C18.49 47.0079 18.8314 47.0566 18.7323 47.3455ZM18.8314 48.0311L18.7818 47.8851L18.8314 47.9327V48.0311ZM18.8777 40.722C19.0221 40.8669 19.3645 41.1611 19.0737 41.3547C18.7323 41.4034 18.6786 40.9166 18.8777 40.722ZM19.5089 47.0079V47.2016C19.4604 46.9582 19.0221 47.1095 19.0221 46.7678V45.3002H19.3171V47.009H19.5089V47.0079ZM19.6069 38.8703L19.6553 39.5062L19.4594 39.4057C19.7533 39.1148 19.3645 39.211 19.6069 38.8703ZM19.6564 51.6867C19.413 51.9798 19.5573 52.5131 19.5099 52.9511H19.3656C19.118 52.2221 19.3656 51.1503 19.118 50.4223C19.3182 50.3176 19.1706 49.98 19.217 49.7356H19.3192C19.5584 49.5886 19.0242 49.542 19.3666 49.4425C18.9768 49.3484 19.0242 48.9072 19.0242 48.4723L19.3192 48.5654L19.3666 48.0798H19.511V48.5178H19.3666C19.2665 48.7125 19.3192 48.9548 19.3192 49.2013C19.3666 49.2997 19.511 49.2479 19.6574 49.2479C19.3192 49.542 19.9008 49.8795 19.511 50.2245L19.6574 50.5186H19.609C19.8503 50.8582 19.2644 51.2973 19.6564 51.6867ZM19.4604 38.4344C19.433 38.2482 19.4678 38.0927 19.5321 37.9646C19.5215 37.9371 19.5352 37.9022 19.6069 37.844H19.6079C19.6511 37.789 19.6996 37.7403 19.7523 37.7012V37.844H19.6079C19.5784 37.8811 19.5542 37.9213 19.5321 37.9646C19.5584 38.0302 19.7375 38.0366 19.7017 38.1424H19.7523C19.8998 38.482 19.4604 38.2355 19.4604 38.4344ZM20.0884 52.9511L20.041 52.7564L20.0884 52.8548V52.9511ZM20.8186 53.8769C20.4793 53.8282 20.2875 53.7827 20.1896 54.1203V53.2463H20.3339C20.2865 53.4431 20.3813 53.6822 20.6237 53.5859H20.8186V53.8769ZM20.3813 45.2992C20.4793 45.4494 20.4793 45.6928 20.6764 45.7414L20.5299 46.4228C20.4793 46.0335 20.0884 45.6441 20.3813 45.2992ZM21.7395 54.025H21.6932V54.6091H21.4498C21.1115 54.1203 21.6457 53.8293 21.4498 53.2463L21.5456 53.4897L21.7395 53.2463V54.025ZM22.2253 54.7593V54.8069L21.9355 54.7075L22.0335 54.3202L22.3243 54.6578C22.3243 54.4811 22.5635 54.5393 22.6278 54.4631L22.6162 54.3202C22.652 54.3943 22.6509 54.4366 22.6278 54.4631L22.6594 54.8069L22.2253 54.7593ZM22.2758 39.0164V38.7233C22.4697 38.6725 22.6162 38.8693 22.5656 39.0164H22.2758ZM22.9502 38.5773C22.8575 38.2831 23.0988 38.1424 23.2463 38.0419C23.2463 38.0906 23.299 38.1424 23.299 38.1424L23.4412 37.9424C23.4412 38.1424 23.6804 38.2355 23.5866 38.5773H23.4412C23.3927 38.4344 23.4876 38.2831 23.3927 38.2355C23.1472 38.2831 23.3927 38.7233 22.9502 38.5773ZM23.3927 40.1358V40.5791H23.1946V40.1358H23.3927ZM23.3 39.6978L23.3927 39.7496V39.8417L23.3 39.6978ZM23.4412 41.306L23.4876 41.7441H23.3C23.6814 41.5991 23.0566 41.4531 23.4412 41.306ZM23.0988 42.3831L23.1946 42.2308C23.2463 42.3831 23.3379 42.6212 23.3927 42.7693C23.0988 42.8667 23.1472 42.4741 23.0988 42.3831ZM23.5371 42.3313L23.4412 41.8901C23.7773 41.7441 23.4876 42.2308 23.7362 42.1842L23.5371 42.3313ZM23.4412 36.4844V35.948L23.7362 36.0919C23.4412 36.0929 23.7784 36.6294 23.4412 36.4844ZM23.8743 33.0203C23.9227 33.2182 24.0713 33.8033 23.7784 33.9017C23.8258 33.6054 23.6814 33.1705 23.8743 33.0203ZM23.7784 34.0487C24.125 34.1397 23.8269 34.3397 23.8269 34.5809C23.5877 34.6317 23.6351 34.1397 23.7784 34.0487ZM23.9723 34.8264V34.9216L23.8743 34.7767L23.9723 34.8264ZM23.9723 35.7533C23.6361 35.7025 23.8269 35.3142 23.8743 35.1206H24.0713L23.9723 35.7533ZM24.36 32.2934L24.4591 32.687C24.635 32.4479 24.6645 32.1696 24.6529 31.8691C24.6803 32.0754 24.9648 32.1188 24.7541 32.5833C24.8458 33.0721 25.0902 33.4128 24.9933 33.999C24.9416 34.0487 24.7994 33.9482 24.7541 34.0487C25.1366 34.2879 24.9416 34.9216 24.9933 35.4094H24.8458C24.7994 35.1206 24.8458 34.8254 24.7541 34.5809C24.5592 34.7756 24.7014 35.2158 24.6498 35.5089C24.7541 35.6549 24.8921 35.5565 24.9933 35.6041C24.6498 35.948 25.2346 37.0187 24.4591 36.9193C24.6498 36.9193 24.6498 36.5278 24.4591 36.5278C24.5592 36.2358 24.5592 35.9469 24.4591 35.6549C24.4127 34.5333 24.5592 33.3123 24.36 32.2934ZM24.7541 31.5623C24.673 31.6893 24.6498 31.7781 24.6519 31.8469C24.6298 31.4099 24.5191 30.9243 24.6034 30.4376C25.0386 30.7835 24.4127 31.1708 24.7541 31.5623ZM24.4591 39.2629C24.4116 38.189 24.6024 37.8948 24.6024 37.1182H24.753C24.753 37.2145 24.753 37.3584 24.8921 37.3584H24.9933C24.7994 37.5065 24.6024 37.7509 24.6498 38.0906C24.7994 38.2355 24.9416 38.0419 24.9416 37.8451V37.7022H25.2356V38.0916H25.0386C24.8458 38.2852 25.2356 38.1911 25.185 38.3836H25.2346V38.5794H24.9406C24.9406 38.4365 24.9922 38.2852 24.8921 38.2376H24.7004C24.6498 38.6281 24.5592 38.918 24.4591 39.2629ZM24.9416 41.8446H24.8458C24.7541 41.5494 24.9416 41.3557 25.2356 41.4531C25.1861 41.6499 25.3821 42.089 25.0386 42.089C25.0386 41.9916 25.0902 41.8446 24.9416 41.8446ZM25.2356 40.3315H25.0386L25.185 40.0385C25.1366 39.9401 24.9933 39.9887 24.9416 39.9887V39.6978C25.1366 39.794 25.2841 39.9887 25.2356 40.3315ZM24.9416 43.4994C24.9416 43.1068 24.4127 42.4741 24.9933 42.3831C24.8458 42.9132 25.675 43.255 24.9416 43.4994ZM25.4316 35.9956V35.8009H25.5781V35.9956H25.4316ZM25.7182 36.2844V36.4844H25.5243C25.5791 36.4336 25.675 36.3373 25.7182 36.2844ZM26.0575 42.2308V42.4254L25.8626 42.2308H26.0575ZM26.0111 37.9424L26.0585 37.9932V38.0895L26.0111 37.9424ZM26.1576 43.255H26.0111C26.3009 43.1079 25.8636 43.0613 26.0111 42.819H26.1576V43.255ZM25.7709 37.4081C25.2841 36.9679 26.1123 36.8727 26.0111 36.3849L26.1576 36.5288C26.0575 36.5786 26.4474 37.6028 25.7709 37.4081ZM26.3009 44.7691L26.205 44.5723L26.3009 44.6654V44.7691ZM27.0332 44.5723C27.1776 44.5723 27.2271 44.2295 27.4694 44.2295C27.4705 44.4241 27.0796 44.5723 27.0332 44.5723ZM27.5158 43.3555L27.3693 42.9619L27.6622 43.0624L27.5158 43.3555ZM27.5158 41.6499L27.5632 41.7441V41.8446L27.5158 41.6499ZM27.6612 40.9166H27.6117V41.5028H27.3693L27.323 41.0616H27.4694C27.3683 40.7685 27.128 40.1855 27.3683 39.794C27.6117 40.0871 27.7592 40.4299 27.6612 40.9166ZM27.4705 38.8227V38.918L27.3693 38.7233L27.4705 38.8227ZM27.3693 38.1424L27.4705 38.2355V38.3339L27.3693 38.1424ZM27.6612 39.1148L27.4694 39.5062L27.3683 39.1148H27.6612ZM28.8276 48.2744L28.777 48.0798H28.9741L28.8276 48.2744ZM29.895 36.9193L29.8465 36.7764L29.895 36.8209V36.9193ZM30.1321 49.9335L30.0878 49.7356L30.1321 49.7854V49.9335ZM30.1321 49.4425L29.9403 49.0532H30.1321V49.4425ZM30.0878 40.5791C30.1321 40.0395 30.2364 39.4565 30.1848 38.8703C30.6178 38.8703 30.9603 38.8227 31.25 39.1148C32.7621 39.211 33.92 38.8703 35.47 38.9687C35.6186 38.7243 35.4247 38.2355 35.6713 38.0419C36.1022 37.8959 36.2013 38.2831 36.6354 38.1424C36.4963 38.5773 36.9283 38.7243 36.687 38.9687C38.3329 39.0164 40.5677 38.8703 42.3663 39.1148C42.556 39.3063 42.4148 39.7507 42.4591 40.0871C41.8258 40.2331 42.2157 41.2087 42.1208 41.7906C42.4148 42.0879 42.025 42.3831 42.025 42.6688C41.5392 42.4731 40.9123 42.6201 41.005 41.8901C41.1536 41.4023 40.9565 40.8204 41.005 40.1347C40.6204 39.7496 40.2727 40.285 39.8891 40.0385H39.1115V40.0871C38.8186 39.8427 38.0452 40.0385 37.8566 39.9887C37.1707 40.3315 36.589 39.794 35.765 39.9887H31.249C30.7116 40.1347 31.446 40.3802 31.0593 40.6225C31.0593 40.8204 31.0593 41.1103 31.152 41.2076C31.1067 41.6488 31.3986 42.4731 30.6663 42.3302C29.7496 42.3831 30.4282 41.015 30.0878 40.5791ZM32.3195 32.5346V32.7293H32.1752C32.1741 32.687 32.2731 32.5833 32.3195 32.5346ZM32.1741 29.8556H32.3185L32.2215 30.2439L32.1741 29.8556ZM32.4154 30.3423L32.466 30.3899V30.4883L32.4154 30.3423ZM33.3416 32.0987L33.3879 32.2458V32.3886L33.3416 32.0987ZM34.5059 31.9527L34.5544 32.0014V32.1442L34.5059 31.9527ZM34.7988 37.5541L34.6502 37.7509L34.6018 37.4589L34.7988 37.5541ZM34.6007 37.0674V36.7764C34.6492 36.8727 34.8884 36.8209 34.7988 37.0674H34.6007ZM35.6723 28.7827L35.8146 28.9319L35.7134 29.0748L35.6723 28.7827ZM36.0548 32.8753C35.9115 33.3642 36.4457 33.5567 35.9589 33.7514L35.9115 32.8753H36.0548ZM36.0074 31.9527H36.2023V32.1432L36.0074 31.9527ZM36.2023 36.0464L36.0548 36.4844L36.0074 35.948L36.2023 36.0464ZM36.0548 34.1958V34.9206L35.9115 34.1958H36.0548ZM37.2718 35.4602H37.3687L37.2191 35.7533L37.1717 35.1206L37.3687 35.2158C37.3213 35.2623 37.1232 35.365 37.2718 35.4602ZM37.1717 32.7812L37.2191 33.1705C37.0758 33.1219 36.9294 32.8753 37.1717 32.7812ZM37.414 34.6317L37.4625 34.7323V34.8264L37.414 34.6317ZM38.5341 31.5094C38.6806 31.9538 38.5773 32.0014 38.5773 32.3886C38.4814 32.3389 38.3887 32.3886 38.3887 32.4881V32.5833L38.335 31.5094H38.5341ZM38.335 31.1242H38.5352V31.3158L38.335 31.1242ZM38.6258 35.1206V35.3142H38.4351V35.1206H38.6258ZM38.4351 33.9472L38.5341 34.1397V34.2402L38.4351 33.9472ZM38.5341 32.7812V33.0711L38.3339 32.7812H38.5341ZM39.1589 35.4094V34.874H39.3096V35.4094H39.1589ZM39.8407 37.7996C40.1368 37.7996 40.0862 38.2842 39.8913 38.3339C39.984 38.1424 39.5067 37.9932 39.8407 37.7996ZM40.0862 34.2879H40.2748V34.582L40.0862 34.2879ZM41.5898 35.948H41.7826L41.8279 36.3373C41.7352 36.1903 41.4928 36.2368 41.5898 35.948ZM42.026 37.9932H41.8269V37.5541C41.8279 37.7509 42.0787 37.7509 42.026 37.9932ZM41.4928 35.6041H41.6351V35.7533L41.4928 35.6041ZM41.6361 35.3142C41.4454 35.1206 41.4939 34.7756 41.4939 34.4349H41.6361C41.4928 34.8264 42.026 35.0179 41.6361 35.3142ZM41.6361 33.3123H41.4939C41.4454 33.1695 41.5908 32.8753 41.3495 32.8267C41.5424 32.5336 41.5424 31.9009 41.3495 31.611H41.5424C41.7362 31.8511 41.7362 32.486 41.5424 32.7283C41.7352 32.7812 41.5898 33.1219 41.6361 33.3123ZM41.2558 30.1476L41.3485 29.9508C41.4454 30.0006 41.3927 30.1476 41.4454 30.2439L41.2558 30.1476ZM42.1725 29.316V29.1732H42.3685V29.316H42.1725ZM41.7826 43.0613V43.255H41.5898V43.0613H41.7826ZM39.553 40.4765V40.6691L39.4066 40.4765H39.553ZM34.2593 51.2476H34.4543L34.5544 51.5418L34.2593 51.2476ZM37.3687 54.3668L37.2718 54.1721L37.3687 54.2187V54.3668ZM37.3687 53.5373L37.2718 53.3426L37.3687 53.4431V53.5373ZM37.3687 53.0527H37.1717V52.7564H37.3687V53.0527ZM38.2886 54.025L38.2359 53.8282L38.2886 53.8769V54.025ZM38.2886 52.8548L38.0937 52.6559H38.2886V52.8548ZM40.5698 54.025V54.6091C40.3296 54.5128 40.3759 54.3202 40.181 54.1721H40.3759L40.4255 53.587L40.6225 54.0261H40.5698V54.025ZM41.2969 53.7827L41.1557 53.3426H41.2969V53.7827ZM42.2167 49.3484C40.2337 49.5886 39.8396 47.4936 38.3876 46.8609C38.3876 46.5212 37.9946 46.6175 37.8577 46.4239C37.9451 46.1329 37.6574 46.0821 37.5626 45.9351C37.2181 46.9095 37.8987 48.5654 36.9778 49.1537C36.3962 49.542 35.9579 49.7854 35.1802 49.4425C34.8873 49.2479 34.7978 48.813 34.5997 48.5654C34.7978 48.3718 34.744 48.5654 34.9379 48.5654C35.5206 48.6183 36.0537 48.5178 36.2961 48.0798C36.5395 47.447 36.5901 46.6165 36.6354 45.9351C35.9104 45.9848 35.863 46.8154 35.1792 46.8609C34.9379 47.447 34.1645 47.3455 33.9727 47.9316C32.9433 48.3221 31.8295 49.4425 30.6663 48.5178C30.6168 48.321 30.2353 48.1792 30.524 47.9845C31.5408 47.7877 32.4122 47.447 33.1877 46.9095C33.7725 46.9582 34.115 46.5202 34.5038 46.2281C35.1792 45.8377 35.862 45.4039 36.5384 44.9627C36.4952 44.8632 36.4952 44.4241 36.2487 44.4241C34.5512 44.913 33.4828 46.3213 31.6399 46.5212C31.2479 46.4736 30.9128 46.2281 30.7632 45.8864V45.6451C32.8516 45.6451 34.1634 44.476 35.5195 43.5004C35.6165 43.256 35.3741 43.3026 35.3741 43.1079C34.115 43.8422 32.9422 44.6664 31.3438 44.7691C31.2026 44.5723 30.6652 44.5225 30.8591 43.9882C32.3163 43.9882 33.2383 43.1597 34.4511 42.819C34.5512 42.526 34.8852 42.5725 35.0854 42.3313C34.841 42.0361 34.5512 42.3831 34.2562 42.3313V42.2308C33.8726 42.2826 32.9422 42.4254 32.6072 42.1366V41.5494C33.7251 41.2087 34.7419 41.7441 35.9558 41.5494C36.588 41.306 37.5605 41.5494 38.2328 41.306C38.3855 41.6499 39.1568 41.1621 39.1105 41.7441C38.865 41.8901 39.0631 42.2837 38.6785 42.3313C38.2865 42.1366 37.3666 42.1842 37.1211 42.2308L36.0527 42.3831C36.1517 43.1068 36.8324 43.4994 37.1211 44.0824C37.7059 44.4231 38.0452 43.5481 38.433 43.2074C38.6785 43.0169 38.7238 42.526 39.2095 42.7196C39.5499 42.7683 39.5046 43.3544 39.8881 43.3015C39.8881 44.4749 38.4319 44.0824 38.0442 45.0071C39.0114 46.3213 40.4223 47.301 41.7794 48.2268C42.0745 48.3718 42.6519 48.2268 42.9448 48.4712C42.948 48.9558 42.5075 49.0542 42.2167 49.3484ZM43.3821 43.8411L43.3347 43.5481L43.3821 43.6972V43.8411ZM43.8657 31.2195C43.5296 31.3655 43.8194 30.8798 43.577 30.9264C43.7256 30.5846 43.9721 30.9772 43.8657 31.2195ZM45.421 53.7827C45.0364 53.6822 45.4726 52.9987 44.8393 53.1955C44.9384 53.4907 44.4505 53.587 44.7919 53.7827C44.6929 53.8769 44.5949 53.9287 44.4031 53.8769C44.2092 53.7351 44.2092 53.1955 44.4031 52.9987C44.4031 52.7099 44.8383 52.8559 44.8383 52.5638C45.2292 52.7575 45.3272 53.1468 45.7128 53.2971C45.8593 53.6378 45.5168 53.6378 45.421 53.7827ZM45.0817 11.2411H45.128L45.0817 11.0421C45.5695 10.9459 45.2292 11.5818 45.5168 11.7278L45.3746 12.3626C45.3282 12.3626 45.2302 12.1669 45.128 12.3118C44.8899 12.115 45.4726 11.6315 45.0817 11.2411ZM45.5168 10.019C45.127 10.019 45.0353 9.68147 45.0817 9.28999C45.1828 8.75355 45.0353 8.70382 45.0817 7.97799C45.5695 7.92931 45.3746 8.65938 45.7139 8.80434C45.3282 8.94823 45.5695 9.63069 45.5168 10.019ZM45.0817 5.10322C45.2734 4.66095 45.0353 4.1753 45.2292 3.88221H45.3735C45.2724 4.46521 45.6159 4.71174 45.4199 5.19845C45.7613 5.83223 45.5685 6.94955 45.6169 7.83091C44.8899 7.92931 45.3282 6.90299 45.2292 6.46601C45.2734 6.46601 45.3735 6.51362 45.4199 6.41522C45.3735 5.8809 44.8899 5.63437 45.127 5.10322H45.0817ZM45.0817 10.5586L45.5168 10.6549L45.3746 10.8517C45.3746 10.6062 44.9384 10.8982 45.0817 10.5586ZM44.989 41.306L44.7424 41.4531C44.6486 41.1611 44.6486 41.306 44.7424 41.015C44.8899 39.9411 44.4979 39.2629 44.6486 38.1424C44.3114 37.9943 44.2598 37.5552 44.2103 37.3584L44.2598 37.2155C44.6929 37.7996 44.7919 37.8451 44.9384 38.6735C44.5959 39.0661 44.989 39.4565 45.0364 39.7951C44.6486 40.3315 45.2302 40.868 44.989 41.306ZM44.6486 36.3849C44.7919 36.5786 44.9889 36.7764 44.9384 37.1647H44.6486C44.5959 37.0187 44.7424 36.7214 44.4979 36.677H44.4042C44.4505 36.6294 44.7424 36.6294 44.6486 36.3849ZM44.6939 35.8961V36.0929H44.4979C44.2598 35.7543 44.6486 35.1682 44.9384 35.0179C44.8899 35.3142 44.5496 35.7025 44.6939 35.8961ZM44.2103 11.677L44.1154 11.9256L44.0628 11.3871L44.2103 11.677ZM44.0628 10.3131L44.1154 10.3639V10.5099L44.0628 10.3131ZM44.0628 9.28999L44.1154 9.77987C43.773 9.72909 44.0628 9.5344 44.0628 9.28999ZM44.0628 12.2145C44.2609 12.4102 44.1597 12.7001 44.2609 12.9922C44.3114 13.1382 43.9732 13.3339 44.1165 13.6778C43.6782 13.2874 44.2103 12.8007 44.0628 12.2145ZM44.2103 14.1645L44.1154 14.3602L44.0628 14.0661L44.2103 14.1645ZM43.9131 14.8946C44.1597 14.8946 44.2609 15.1369 44.2103 15.4299C44.0628 15.4299 44.1155 15.6289 43.9131 15.5305V14.8946ZM42.9986 12.8007C43.4306 12.8493 43.1397 12.3626 43.3347 12.2145C43.1387 11.3871 43.2915 10.3142 43.2388 9.38945H43.2915C43.0428 8.94823 43.4801 8.56098 43.3347 7.97904L43.5296 8.12188V12.2642H43.4811C43.7256 12.7001 43.1397 13.19 43.5296 13.6788L43.3347 13.8735C43.0428 13.7265 43.4801 12.9932 42.9986 12.9445V12.8007ZM42.8995 18.11L42.8036 18.1576L42.6561 17.5715C42.9986 17.526 42.7046 18.11 42.8995 18.11ZM42.4601 6.75698V6.85644L42.4148 6.70831L42.4601 6.75698ZM41.7352 3.54046L41.7837 4.31813H41.5908C41.6361 4.0769 41.4928 3.68541 41.7352 3.54046ZM41.7826 5.00165H41.5898L41.7341 4.71174C41.8279 4.71174 41.7352 4.90536 41.7826 5.00165ZM41.4928 5.78144C41.5403 5.78144 41.6351 5.97401 41.7341 5.83329C41.4928 6.46601 42.3674 6.99822 41.8817 7.73146C42.1208 8.31551 41.4444 8.85406 42.025 9.14609C41.5887 9.14609 41.8258 9.73014 41.7816 10.019H41.5887C41.5403 8.70382 41.6836 7.24475 41.4918 5.97507H41.5392L41.4928 5.78144ZM39.3107 3.63886V3.92982L39.16 3.54046L39.3107 3.63886ZM33.9748 9.87721V10.019H33.7746C33.8221 9.97562 33.9211 9.87721 33.9748 9.87721ZM30.6684 9.38945C30.7664 9.38945 30.6684 9.58413 30.7137 9.68147L30.5272 9.58413L30.6684 9.38945ZM29.7043 9.14609C29.7506 9.19265 29.8465 9.28999 29.895 9.34077H29.7043V9.14609ZM29.5072 4.12768H29.6505V4.31919H29.5072V4.12768ZM28.9741 7.24369V7.34209L28.9193 7.14846L28.9741 7.24369ZM28.6769 6.46601L28.8276 6.75698H28.6769V6.46601ZM28.6769 7.53783C28.973 7.53783 28.777 7.93037 28.8276 8.1695C28.8276 7.92931 28.5853 7.83091 28.6769 7.53783ZM27.8066 7.43837V7.58438L27.7592 7.29553L27.8066 7.43837ZM27.7592 7.73146L27.9046 8.02666H27.7592V7.73146ZM27.6117 8.31445H27.8066V8.51231H27.6117V8.31445ZM26.402 6.65964V6.75698L26.3546 6.56123L26.402 6.65964ZM26.1576 4.31813V4.41653L26.1112 4.21973L26.1576 4.31813ZM26.1123 5.29367H26.3009L26.1123 5.58676V5.29367ZM24.9933 7.58438L24.9416 6.17081C25.0902 5.97507 24.9416 6.31682 25.0386 6.36867C25.2841 6.31788 25.1366 6.02797 25.185 5.8809C25.2346 6.31682 25.4801 6.80776 25.2841 7.14952L25.2356 7.34315L25.1366 6.85644C24.8932 6.99822 25.0386 7.34315 24.9933 7.58438ZM24.9416 4.12768H25.2356C25.1366 4.17635 25.1366 4.36681 24.9416 4.31919V4.12768ZM24.9933 4.80696V5.10322L24.8458 4.80696H24.9933ZM23.8743 6.80776H24.1672V6.99822L23.8743 6.85644C23.7784 7.48599 23.8258 7.39393 23.8258 8.0256H23.6814C23.7362 7.63306 23.4876 6.94954 23.8743 6.80776ZM23.6814 6.36867L23.7362 6.41628V6.51468L23.6814 6.36867ZM23.7362 4.46521L23.5877 4.90642L23.5381 4.02928L23.7362 4.46521ZM21.357 7.14952L21.4993 7.43837H21.357V7.14952ZM20.6237 6.94955H20.8186C20.9608 7.14952 20.5288 7.10085 20.767 7.29553H20.6247V6.94955H20.6237ZM20.3339 6.85644V6.99822L20.2865 6.80776L20.3339 6.85644ZM20.2391 5.92428V6.07558L20.1896 5.88196L20.2391 5.92428ZM20.1896 8.80539C20.5805 8.60859 20.1369 8.07215 20.2875 7.58544L20.1896 7.29659H20.3339C20.4266 7.88064 20.6753 8.56098 20.5794 8.99584L20.4783 8.75461L20.1885 8.99584V8.80539H20.1896ZM19.1169 26.6878H19.3171V26.8825H19.1169V26.6878ZM19.1169 27.6104H19.3171V27.9088H19.1169V27.6104ZM19.1169 28.5881H19.3171V28.733H19.1169V28.5881ZM18.8777 11.2411H18.923C19.0221 11.4347 18.8314 11.6325 18.6375 11.5341C18.6786 11.4855 19.0221 11.4855 18.8777 11.2411ZM18.8314 24.2024V24.2997L18.7818 24.1082L18.8314 24.2024ZM18.7323 23.6162V23.7146L18.6375 23.4215L18.7323 23.6162ZM18.2445 10.3639V10.5099L18.2002 10.3131L18.2445 10.3639ZM17.999 3.44629L17.6196 3.58807L17.4721 3.44629H17.999ZM17.765 28.9764H17.6207V28.6822L17.765 28.9764ZM17.5659 30.1476V30.2439L17.4721 30.0979L17.5659 30.1476ZM17.1318 19.6686L17.4215 19.8675H17.1318V19.6686ZM14.2658 27.5173L14.172 27.7109L14.1193 27.5173H14.2658ZM13.5861 14.847V14.9454L13.5398 14.7517L13.5861 14.847ZM13.5398 17.3323H13.5861C13.4913 17.0869 14.0751 16.4065 13.5398 16.1113V15.1369H13.6841C13.7832 16.0637 14.0234 16.8933 13.9275 17.964C13.6841 17.9164 13.4418 17.7704 13.5398 17.3323ZM13.6841 18.1576C13.9275 18.3523 13.6367 18.747 13.9739 18.8412C13.6841 18.8412 13.8812 19.6199 13.8317 19.9627H13.6378C13.3975 19.5257 13.6378 18.693 13.3975 18.2571C13.5861 18.2571 13.4913 18.11 13.6841 18.1576ZM13.9286 24.5917C14.0751 24.9324 13.6378 24.6425 13.6378 24.8848C13.6378 24.6436 13.7379 24.2024 13.3975 24.2024C13.8822 23.9611 13.3459 23.3242 13.5398 23.0798C13.8316 23.0798 14.0751 23.4691 13.8317 23.7146H13.7832C14.0234 23.8574 13.4418 24.1548 13.9275 24.2489C14.1193 24.4955 13.5861 24.4955 13.9286 24.5917ZM13.8812 31.9527H13.9286C13.6852 32.3378 13.9286 32.2458 13.8317 32.7293L13.6378 32.2934H13.6852C13.6378 31.9538 13.5408 31.8533 13.7842 31.5094V30.7846H13.9286V31.6565H13.7842C13.5398 31.8533 13.9286 31.7538 13.8812 31.9527ZM13.6378 30.245C13.5861 30.099 13.7379 29.9043 13.9286 29.9519V30.391L13.6378 30.245ZM13.3965 25.8561C13.6841 25.5673 13.9275 25.9545 13.8306 26.2952C13.5398 26.2952 13.5861 26.0021 13.3965 25.8561ZM13.7832 27.2718C13.5398 27.1755 13.6841 26.8359 13.6378 26.5904H13.9286L13.7832 27.2718ZM13.5861 21.134H13.3975V20.8398H13.5861V21.134ZM13.8317 22.8861H13.5398V22.4978C13.7379 22.4978 13.8812 22.6407 13.8317 22.8861ZM13.3965 20.3976L13.8306 20.4991L13.6841 20.6896C13.7379 20.4515 13.249 20.7446 13.3965 20.3976ZM11.9382 4.41653V4.51599L11.8908 4.21973L11.9382 4.41653ZM12.1805 4.90536L12.0309 5.00165L11.8908 4.71174L12.1805 4.90536ZM12.327 5.8809L12.1816 6.07452L12.1342 5.78144L12.327 5.8809ZM11.7401 5.39525C11.8423 5.39525 11.7401 5.24923 11.7938 5.19845H11.8423C11.6495 5.58676 12.1805 6.26921 11.8423 6.80776C11.9382 7.29553 11.8423 7.29553 11.7938 7.68279H11.6495C11.7938 6.94955 11.405 6.51362 11.5504 5.78144C11.8423 5.58676 11.4503 5.39525 11.4503 5.19845L11.7401 5.39525ZM11.7401 38.5773H11.5504C11.5957 38.3339 11.4503 37.9424 11.6495 37.7996C12.0857 37.9424 11.5957 38.2355 11.7401 38.5773ZM11.7938 36.8727L11.8423 36.9203V37.0674L11.7938 36.8727ZM11.5504 22.3V22.1571L11.8423 22.2524C11.8423 22.3486 11.6495 22.3 11.5504 22.3ZM11.3513 22.2037V22.3L11.306 22.1571L11.3513 22.2037ZM11.0605 33.4594L11.2607 33.6054L11.0605 33.9017C11.209 33.6054 10.7739 33.6573 11.0605 33.4594ZM11.0605 14.0153V13.8206H11.2607V14.0153H11.0605ZM10.383 5.1995H10.5789C10.3366 5.68621 10.9699 5.3963 10.9151 5.7825C11.0162 5.3963 11.1616 4.80802 11.0162 4.51705L11.0605 4.36681C11.0162 4.61228 11.4514 4.76041 11.1627 4.95192V6.75804H11.0605C11.3513 7.10191 10.7739 7.53783 11.1627 7.93037H11.0605C11.1163 8.22028 11.0605 8.07215 11.0162 8.41391H10.8719C10.8244 7.83197 10.9699 7.10191 10.7243 6.66069H10.6285V6.36867C10.4377 6.51468 10.2397 6.36867 10.1448 6.1232C10.383 5.97507 10.383 5.53914 10.383 5.1995ZM10.9151 14.2608V14.3613L10.8719 14.1656L10.9151 14.2608ZM10.6285 15.9643V16.2108C10.6106 16.1293 10.6169 16.0468 10.6285 15.9643V14.6502C10.6664 14.6502 10.7296 14.7856 10.7971 14.7739L10.8719 14.6988C10.8455 14.7486 10.8223 14.7697 10.7971 14.7739L10.6801 14.8956C10.953 15.249 10.6864 15.6066 10.6285 15.9643ZM10.7739 34.8264H10.6295V34.2879C10.8255 34.3863 10.7739 34.5809 10.7739 34.8264ZM10.482 9.38945C10.8255 9.38945 10.6285 9.92377 10.6285 9.97667H10.6801V10.1692H10.4809C10.383 9.82854 10.8255 9.63068 10.482 9.38945ZM10.7739 13.3847L10.6811 13.5318L10.6295 13.2366L10.7739 13.3847ZM10.6285 12.8969L10.6801 12.9445V13.0948L10.6285 12.8969ZM10.482 11.969C10.5305 11.969 10.6285 12.115 10.6811 12.115H10.482V11.969ZM9.70228 35.0179H9.8519C9.8519 35.0698 9.8519 35.2623 9.99942 35.2168H10.0932V35.5099H9.79817C9.75391 35.365 9.89721 35.0698 9.70228 35.0179ZM9.62958 28.5151C9.5948 28.3987 9.62958 28.2897 9.75391 28.0992C9.75391 28.205 9.60429 28.387 9.62958 28.5151ZM9.75391 28.6336V28.732C9.6928 28.6568 9.65803 28.5965 9.63484 28.5383C9.65065 28.5785 9.68542 28.6124 9.75391 28.6336ZM9.70228 30.0979H9.8519C10.0932 30.5381 9.94884 31.2195 9.99942 31.8046C9.70228 31.9019 10.0405 32.0987 9.99942 32.2458H9.89616C9.85085 32.3378 9.79711 33.1705 9.99942 33.4118H9.89616L9.99942 33.6573C9.75391 33.7006 9.89616 33.9472 9.8519 34.1397H9.70228V30.5381C9.99942 30.4376 9.61061 30.245 9.70228 30.0979ZM9.79817 29.7551L9.8519 29.8048V29.9032L9.79817 29.7551ZM10.0405 27.8093C9.8519 27.7109 9.8519 27.2708 10.0405 27.1755C10.482 27.3184 9.94884 27.5649 10.0405 27.8093ZM9.89721 26.8825C9.79817 26.6878 10.3366 26.2963 9.79817 26.1524C9.79817 26.5904 9.56003 26.9301 9.70228 27.1755H9.56003V26.6878C9.60956 26.7364 9.65908 26.6878 9.70228 26.6359C9.70228 26.2952 9.50735 26.4381 9.70228 26.1524C9.65908 25.4689 9.79817 24.6901 9.56003 24.1082L9.8519 24.25C9.56003 24.5452 9.99942 24.8372 9.8519 25.2763V26.1535C10.0932 25.9122 10.0932 26.3968 10.1912 26.5428C10.2892 26.7364 10.0932 26.8825 9.89721 26.8825ZM9.99942 23.4691C10.0932 23.6638 9.70228 23.6162 9.89616 23.7654H9.79711L9.70123 22.8375C9.8519 22.8861 10.0405 23.1792 9.99942 23.4691ZM9.70228 21.7646H9.8519V22.0534L9.70228 21.7646ZM10.0405 25.3726V25.0837H10.1912L10.0405 25.3726ZM10.1459 16.0161C10.0942 15.8183 10.2407 15.4818 10.0416 15.4289L10.1459 15.1369C10.384 15.3305 10.3366 15.6278 10.3366 16.0161H10.1459ZM10.3366 14.3095L10.1459 14.847C10.0005 14.5063 10.0005 13.8206 10.1459 13.4831C9.8519 13.2863 10.1922 12.9435 10.3366 12.8969C10.482 13.4842 9.99942 13.8206 10.3366 14.3095ZM9.75391 3.83142V3.92982L9.70228 3.78381L9.75391 3.83142ZM9.79817 4.22079C10.2407 4.36681 9.70228 4.66095 9.79817 4.90642C9.70228 4.56361 9.46204 4.51599 9.79817 4.22079ZM9.8519 6.1232L9.75391 6.26921L9.70228 5.97401L9.8519 6.1232ZM9.56003 5.53914H9.75391V5.68516H9.56003V5.53914ZM9.32085 7.73146L9.46204 8.12188C9.66013 8.02666 9.5084 7.73146 9.56109 7.53783C9.66013 8.22028 9.56109 9.19265 10.0942 9.58413C9.85296 9.58413 9.56109 9.97667 9.85296 10.1692C10.0942 10.365 9.89826 10.9469 10.0942 11.1924L9.89721 11.0982C9.70228 11.6325 10.0416 12.0177 10.0942 12.5097C9.75496 12.5097 9.94989 12.9932 9.75496 13.0948C9.61166 12.6525 9.79922 11.9256 9.56109 11.4865C9.89721 11.2929 9.41673 11.1416 9.46204 10.8993C9.75496 10.8009 9.363 10.6062 9.46204 10.4634C9.5084 10.2655 9.46204 9.68253 9.41568 9.34183H9.32085C9.363 8.94929 9.75391 8.60859 9.46204 8.22028C9.21548 8.16844 9.363 7.92931 9.32085 7.73146ZM9.32085 8.55992L9.41568 8.60754V8.75355L9.32085 8.55992ZM9.56003 43.9882C10.4377 42.4741 11.6495 40.9643 12.8127 39.6988C13.7379 38.3826 15.0929 37.4599 15.9696 36.0929C16.6945 35.4105 17.3246 34.582 18.0548 33.8519C18.49 32.8764 19.5573 32.4373 20.042 31.5094C20.767 30.829 21.4993 30.0027 22.0345 29.1742C22.1304 29.0303 22.3738 28.9764 22.3738 28.733V28.5881C22.8585 28.442 22.8101 27.8104 22.9512 27.4189C23.0018 26.9301 23.3938 26.491 23.0998 26.054C22.8101 25.5673 23.0998 24.7885 22.8585 24.2987H22.7163C22.8585 23.0332 22.3749 22.2524 22.3749 21.0821C22.2769 20.988 22.1315 21.0345 22.0356 21.0345C21.8386 20.788 22.3749 20.788 22.0356 20.6896V20.4991H22.2274C22.3264 19.8664 22.1315 19.3268 22.0356 18.7459H21.7933C22.0356 18.6433 21.8881 18.256 21.9376 18.0645C21.4023 17.8159 21.9376 16.8922 21.4508 16.6965L21.2538 15.7706H21.1115C20.8702 14.9919 20.6247 14.2111 20.3813 13.4323H20.2875C20.3813 11.969 18.6375 10.9459 19.5099 9.87616C20.335 9.62963 20.6247 8.90062 21.4498 8.70276C21.9366 8.75249 21.9366 8.11977 22.5656 8.31339L22.6162 6.94849H22.6604C22.6162 6.41416 22.5171 5.97295 22.7152 5.6841C22.6162 5.53809 22.8575 4.8059 22.6162 4.51493L22.7152 3.88115C23.3 4.31708 22.8101 5.48624 23.1472 6.12214V7.43837C22.8101 7.34315 23.0566 6.80777 22.9038 6.51362C22.6604 6.94955 22.8101 7.632 22.8101 8.16844C22.7152 8.16844 22.7152 8.16844 22.6604 8.21922C22.7616 8.46152 23.0566 8.31339 23.2473 8.31339C23.6361 8.21922 24.125 8.60648 24.7541 8.46046V8.60648C25.5254 8.41179 25.2841 9.28893 25.9079 9.14397C26.0122 9.58201 26.5443 9.33866 26.8857 9.38733C27.0806 9.14398 27.6622 9.38733 27.8593 9.14397C28.5863 9.04557 29.2143 9.67936 29.797 10.2158C30.5272 10.5565 31.5893 10.0169 32.7052 10.2158C32.9454 10.0687 32.4154 10.0169 32.7631 9.9206C32.8063 10.4126 33.8221 10.1661 34.213 10.5554C34.7988 10.8475 35.0412 11.531 34.8894 12.3594C34.8894 12.7975 34.3099 13.3815 34.94 13.5752C35.4711 13.4302 35.7134 12.8938 36.1043 12.6493V12.5531C36.6375 12.7975 36.3467 12.1119 36.6891 12.2113C38.0937 12.0653 38.9693 12.8938 39.553 13.7222C39.6932 14.1148 39.7975 14.5031 39.8913 14.8914H40.0356C39.8913 15.4786 40.3759 15.5262 40.3759 16.014C40.4771 16.1092 40.6225 16.0616 40.7142 16.0616C40.7142 16.4044 41.0566 16.3515 41.202 16.5028C41.3927 17.1832 41.6361 17.9143 42.3685 18.1079C42.6129 18.6898 43.2936 19.0835 43.2936 19.8643C43.2409 19.8643 43.1924 19.8643 43.1924 19.9119C43.9732 22.2016 45.5179 24.688 44.5506 27.4665C44.3114 28.3415 43.2936 28.5849 42.4169 28.7298C41.3495 28.9732 40.0872 28.8293 39.16 28.5849C38.335 28.5362 37.6111 28.4389 36.9304 28.1945C35.8651 28.4897 34.8441 27.6072 33.7304 27.9056C32.8558 27.6072 31.7895 28.0484 31.0625 28.0008V28.0484C30.4292 27.5617 30.2385 28.4897 29.5083 28.1468C29.2617 28.6791 28.3398 28.0961 28.1501 28.6304C27.4715 28.4389 27.2281 29.0716 26.793 28.878C26.5443 29.3128 25.8647 29.0272 25.5802 29.4631C25.0396 29.5636 24.4612 29.6588 24.1261 30.0471C23.9733 30.0958 23.7373 29.9487 23.7373 30.1455C23.5381 30.2894 23.2484 30.3402 23.1483 30.6291C22.5667 30.7285 22.181 31.265 21.9376 31.6533C21.4023 31.8998 21.3054 32.486 20.8197 32.7272C20.5805 33.0182 20.0895 33.069 19.9988 33.5557C19.2655 33.6562 19.0748 34.4847 18.5384 34.8243C18.6796 35.2602 18 34.9195 18.2445 35.4084C18 35.5544 17.8125 35.9469 17.4721 35.9945C17.3773 36.3363 17.1781 36.4326 16.9832 36.677C16.646 37.2134 16.115 37.5531 15.9179 38.2344C15.8199 38.2344 15.6756 38.1879 15.6756 38.3329C15.1888 38.7233 14.7041 39.3571 14.4122 39.9887C13.9749 40.0871 13.6852 40.6225 13.3459 40.9166C12.7643 41.7441 12.1816 42.526 11.5968 43.3555C11.1174 43.3026 11.5968 44.0369 11.0615 43.9364C11.0173 44.4241 11.0615 44.8643 10.6306 45.0082C10.581 45.8388 10.0015 46.2281 10.1933 47.2026C10.0015 47.3465 10.1469 47.6914 10.0953 47.9327C10.0015 47.9327 9.85401 47.9327 9.85401 48.0321V48.1803C9.17439 48.1803 8.88252 47.7391 8.44735 47.3465L8.29983 47.593C8.44735 47.009 8.00796 47.009 7.76351 46.7688C7.76351 46.2292 8.44735 45.8388 8.54113 45.3013C9.08061 45.059 9.363 44.5723 9.56003 43.9882ZM19.3645 19.3776V19.2316H19.5089V19.3776H19.3645ZM19.5089 21.6186V21.7159L19.4604 21.5699L19.5089 21.6186ZM19.7017 24.3494L19.7523 24.5441V24.6425L19.7017 24.3494ZM19.7955 25.2753C19.7955 25.4678 20.0884 25.4678 19.9967 25.7133C19.8998 25.5673 19.7533 25.5186 19.7955 25.2753ZM21.357 19.2316L21.1115 19.3268C20.9134 18.9385 20.9134 18.8909 21.1115 18.5026C21.2527 18.6444 21.0177 19.1332 21.357 19.2316ZM21.2074 20.2071L21.1579 20.2558L21.1115 19.6686L21.2074 20.2071ZM20.9598 18.2084L21.1105 17.8169L21.1568 18.2084H20.9598ZM21.357 18.1576L21.4013 18.2084V18.3513L21.357 18.1576ZM8.15548 5.8809C8.24926 5.92428 8.24926 6.22054 8.44524 6.1232V6.26921C8.205 6.41522 8.00586 6.46601 7.96055 6.75698C7.81198 6.36867 8.10174 6.17081 8.15548 5.8809ZM9.17228 10.3639L8.88041 10.2645C9.17228 9.87722 8.63912 9.34077 8.98156 8.90168C9.27133 9.19159 9.17228 10.1206 9.17228 10.3639ZM9.17228 7.63306C8.78136 7.78119 9.41568 7.92931 9.02793 8.0256C8.98156 8.0256 8.98156 7.68279 8.73606 7.83091C8.73606 7.68384 9.02687 7.34315 9.17228 7.63306ZM8.73606 3.78381C9.08061 3.78381 8.88041 4.21973 8.92993 4.41653C8.73606 4.80696 8.63912 4.21973 8.34514 4.46521C8.68969 4.76041 8.1028 5.15083 8.39361 5.34552L8.05538 5.24923C8.25031 5.1995 8.1028 4.90536 8.15653 4.71174L8.12598 4.68211C8.09331 4.77416 8.04484 4.85669 7.96266 4.90536L8.10385 4.65989L8.12703 4.68211C8.26295 4.30015 8.11123 3.66742 8.73606 3.78381ZM8.05433 3.78381L8.24926 3.54046L8.34409 3.7362C7.66341 3.83142 8.24926 4.21973 7.81198 4.51599C7.35679 4.10441 8.13757 4.12345 8.00164 3.64626L8.05433 3.78381ZM52.5101 3.15215V2.95429C52.2657 3.05375 52.2657 2.76278 52.214 2.71305C52.0739 3.10136 52.4121 2.90667 52.5101 3.15215ZM11.5957 3.49073L11.5504 3.44629L11.5957 3.58807V3.49073ZM52.6007 3.49073L52.5544 3.44629L52.6007 3.58807V3.49073ZM10.9151 6.17081L10.8719 6.1232L10.9151 6.26921V6.17081ZM38.6258 17.234C38.3876 17.1853 38.3339 17.2816 38.2349 17.38C38.4351 17.4805 38.4814 17.234 38.6258 17.234ZM36.8809 18.2571C36.4457 18.2571 36.4457 18.693 36.1043 18.7925C36.4984 18.7925 36.5911 18.3999 36.8809 18.2571ZM33.1898 23.9601C33.9211 23.7146 34.409 23.0798 35.2266 23.0343C35.7672 22.6407 36.4973 22.3994 36.8345 21.864C37.61 21.864 37.8029 20.9382 38.5341 21.134V21.0356C38.6258 20.7891 38.9682 20.9382 39.2127 20.8896C39.4066 20.3023 40.181 20.35 40.7142 20.1066C40.5182 19.5776 41.0566 19.8664 41.1557 19.5247C41.1557 19.2316 41.6846 19.5765 41.5413 19.2316C41.4454 19.038 41.6361 19.038 41.7826 19.038V18.8412C41.2958 19.2803 40.476 19.3279 40.0345 19.8177L39.8396 19.6686V19.8177C39.4055 19.9151 39.2116 20.3986 38.6806 20.3986C38.3876 20.5965 38.1432 20.8896 37.7491 20.989C37.6585 21.1837 37.4625 21.0366 37.4625 21.3297C36.8809 21.3297 36.6891 21.8133 36.1033 21.7656C35.7124 22.5941 34.6966 22.737 34.0676 23.3242C33.8221 23.521 33.3416 23.6162 33.1898 23.9601ZM35.9589 18.9872H35.7672L35.8146 19.1332L35.9589 18.9872ZM31.9792 22.7877C31.9792 22.6967 31.936 22.5931 32.0308 22.5454C32.5619 22.6967 32.6535 22.1571 32.9991 21.9635C33.1414 21.6662 33.5302 21.7159 33.3869 21.1827C33.5787 21.0356 33.821 20.7446 34.0159 21.0356C34.6492 20.5002 35.4247 20.1066 35.6186 19.2326C35.1802 19.2326 35.332 19.6686 34.8431 19.5776C33.8758 20.5954 32.5619 21.3287 31.74 22.4978C31.4934 22.6407 31.1088 22.6407 31.1088 23.0343H31.2964C31.4934 22.5454 31.5429 22.9814 31.9792 22.7877ZM22.3243 20.7891V20.6907L22.2758 20.5954L22.3243 20.7891ZM39.553 23.1792C39.356 23.3718 38.8207 23.2268 38.9219 23.7157C39.6932 23.8141 39.8913 23.0343 40.7142 23.1337C40.9586 22.5465 41.8827 22.8861 42.1219 22.3497C41.3917 22.2534 40.9586 22.737 40.3285 22.737C40.2337 23.0798 39.7975 23.0343 39.553 23.1792ZM30.3755 23.9093C30.2364 23.6162 30.5261 23.6162 30.5725 23.4691C30.7664 23.4215 30.818 22.9348 30.5261 22.9348L30.4714 23.0787C29.9403 23.0787 29.9403 23.5675 29.4082 23.5199C29.3102 24.0511 28.777 24.2976 28.6769 24.7875C28.7275 24.7875 28.8771 24.7378 28.9182 24.8362C28.6769 25.0319 28.2934 25.1726 28.3377 25.5662C28.9182 25.1303 29.4071 24.6415 29.9392 24.2013C29.9403 23.9093 30.4714 24.2489 30.3755 23.9093ZM38.7259 23.521C38.335 23.521 37.9946 23.5686 37.8577 23.8141H38.0463C38.1442 23.5686 38.7259 23.9093 38.7259 23.521ZM34.6502 24.6901C34.3099 25.4202 33.1424 25.1314 32.8063 25.8561C32.1752 25.9545 31.5904 26.1524 31.347 26.6359C32.2742 26.491 33.0002 26.0021 33.7757 25.7133C33.9211 25.4689 34.3099 25.6636 34.3099 25.3726C34.6018 25.2753 34.7461 25.0319 35.1349 25.1314C35.4711 24.7388 36.2529 24.8848 36.5416 24.5441C36.7418 24.3981 36.9789 24.2997 37.1232 24.2024C37.0758 24.0521 37.2718 24.0521 37.3687 24.0521V23.9093C36.3467 24.0521 35.7672 25.0319 34.6502 24.6901ZM33.0002 24.0045C32.7621 24.1082 32.6103 24.3494 32.2731 24.2489C32.3195 24.6901 31.7874 24.3494 31.8317 24.7885C32.1277 24.4489 32.6103 24.4489 33.0487 24.2987C33.0002 24.2024 33.0971 24.0045 33.0002 24.0045ZM41.8279 24.2489V24.3494C41.8279 24.4955 41.6857 24.4955 41.5898 24.4955C41.4928 24.4478 41.5413 24.2987 41.5413 24.2489C40.5698 24.2987 39.6489 24.4955 39.0146 25.0827L39.4055 25.2245C40.181 25.617 40.0851 24.5431 40.7142 24.9832C40.6225 24.9832 40.5698 24.7388 40.6678 24.6425C40.7658 24.6901 40.9133 24.5917 41.006 24.6901L40.9133 24.8838C41.4444 24.9314 41.5403 24.2987 42.2167 24.5431C42.1725 24.1072 42.026 24.5441 41.8279 24.2489ZM29.7043 26.0021C29.5325 26.0021 29.6948 26.3354 29.5104 26.3577C30.0088 26.4095 30.5093 25.8974 31.0614 25.7122C31.347 25.7122 31.1099 25.2742 31.544 25.3715C31.4481 25.0827 31.7885 25.0308 31.5904 24.8362C31.4018 25.1303 30.8633 25.0827 30.7148 25.4202C30.1848 25.3726 30.1848 25.9545 29.7043 26.0021ZM37.708 25.2245V25.0827H37.5131L37.708 25.2245ZM36.0074 25.4202C35.332 26.0021 34.0159 25.9101 33.4375 26.5904C33.9211 27.1248 34.409 26.3471 34.8431 26.3471V26.3957L35.3762 26.2952C35.7124 26.346 35.47 25.7122 35.9579 25.9545C36.4973 25.7133 36.8335 25.4202 37.3677 25.1737C36.8809 25.1737 36.5911 25.5673 36.0074 25.4202ZM26.0111 27.8093C26.205 27.4178 26.6918 27.2708 26.9373 26.7354C26.9373 26.4899 27.4705 26.8338 27.324 26.437C27.7602 26.437 27.8077 25.8106 27.8593 25.8106C27.6622 25.763 27.7602 26.1513 27.5632 25.9535V25.763H27.3693C27.1291 26.0011 26.8846 26.1989 26.7919 26.5407C26.0111 26.7354 25.9616 27.6623 25.2841 28.0029C25.1366 28.1966 25.1366 28.732 24.7014 28.6325L24.9943 28.7309C25.2356 28.2971 25.8225 28.2463 26.0111 27.8093ZM28.5336 26.1524H28.6316C28.6148 26.0709 28.6348 26.0043 28.6643 25.9461C28.6032 26.0148 28.5547 26.09 28.5336 26.1524ZM28.8519 25.7958C28.7739 25.8254 28.7022 25.8699 28.6643 25.945C28.718 25.8826 28.7834 25.8297 28.8519 25.7958ZM28.8519 25.7958C28.8919 25.7821 28.9309 25.7641 28.9741 25.7641C28.933 25.7641 28.8919 25.7778 28.8519 25.7958ZM27.0332 27.9088C27.6117 27.7109 28.05 27.2232 28.5326 26.8825C28.6306 26.7364 29.1174 26.8825 29.071 26.5904C28.5842 26.5904 28.4862 27.0803 27.9531 27.0295C27.7592 27.5173 27.2271 27.5649 27.0332 27.9088ZM35.0401 26.7364L35.1339 26.5904H34.939L35.0401 26.7364ZM39.1136 26.8348H38.335V26.9777H39.1136V26.8348ZM35.7672 26.9301C35.7672 27.2232 35.2835 26.8825 35.4258 27.2232C35.8641 27.3692 35.9589 26.9777 36.3972 27.1237C36.3972 26.7872 36.0074 26.9777 35.7672 26.9301ZM37.5141 27.1237H37.7091V26.9301H37.5141V27.1237ZM39.8407 26.9301V27.1237C40.5698 26.8825 40.5698 27.6104 41.2969 27.3184V27.2232C41.2969 27.1586 41.339 27.1205 41.3959 27.1121C41.1051 27.0581 40.4349 26.8465 39.8407 26.9301ZM39.3107 27.7109L39.4508 27.5173H39.0156L39.3107 27.7109Z" fill="#AE483C"/>
</svg>
