<svg width="40" height="35" viewBox="0 0 40 35" fill="none" xmlns="http://www.w3.org/2000/svg" aria-labelledby="title" role="img" ><title id="title">Uchi (Home) Kanji</title>
<path d="M0.799988 8.1803C0.93213 6.58917 1.24361 4.87012 1.08944 3.14171C2.38255 3.14171 3.40508 3.00132 4.2703 3.8624C8.78518 4.14631 12.2429 3.14171 16.871 3.43186C17.3147 2.71117 16.7358 1.26979 17.472 0.698853C18.7588 0.268311 19.0545 1.41018 20.3508 0.99524C19.9355 2.27751 21.2255 2.71117 20.505 3.43186C25.4194 3.57225 32.0926 3.14171 37.4633 3.8624C38.0296 4.4271 37.608 5.73744 37.7401 6.72956C35.8492 7.1601 37.0133 10.0366 36.7302 11.7525C37.608 12.6292 36.4439 13.4997 36.4439 14.342C34.9935 13.7649 33.1214 14.1985 33.3983 12.0458C33.8419 10.6076 33.2536 8.89163 33.3983 6.86995C32.2499 5.73432 31.2117 7.31297 30.0664 6.58604H27.7445V6.72956C26.8698 6.00887 24.5605 6.58604 23.9973 6.43941C21.9491 7.45025 20.2124 5.86536 17.752 6.43941H4.2703C2.66572 6.86995 4.85865 7.59376 3.70398 8.30821C3.70398 8.89163 3.70398 9.74647 3.98085 10.0335C3.84556 11.3345 4.71707 13.7649 2.53043 13.3437C-0.209959 13.5028 1.81308 9.4688 0.799988 8.1803Z" fill="#AD473B"/>
<path d="M37.0167 34.0409C31.0954 34.7491 29.9188 28.5717 25.5832 26.706C25.5832 25.7046 24.4097 25.9885 24.0007 25.4175C24.2618 24.5596 23.4029 24.4098 23.1197 23.9762C22.0909 26.8496 24.1234 31.7322 21.3735 33.4668C19.6368 34.6118 18.328 35.3294 16.006 34.3185C15.1314 33.7445 14.8639 32.4622 14.2724 31.7321C14.8639 31.1612 14.7035 31.7321 15.2824 31.7321C17.0223 31.8881 18.6143 31.5918 19.3379 30.3001C20.0647 28.4345 20.2157 25.9854 20.351 23.9762C18.1864 24.1228 18.0448 26.5719 16.0029 26.706C15.2824 28.4345 12.973 28.1349 12.4004 29.8633C9.32653 31.0146 6.00095 34.3185 2.52749 31.5918C2.37961 31.0115 1.24067 30.5934 2.10274 30.0193C5.13887 29.439 7.74082 28.4344 10.0565 26.8496C11.8026 26.9931 12.8252 25.7014 13.9861 24.8404C16.006 23.6891 18.0479 22.41 20.0678 21.109C19.9388 20.8157 19.9388 19.521 19.2026 19.521C14.134 20.9624 10.9437 25.1149 5.44091 25.7046C4.27051 25.5642 3.27 24.8404 2.82323 23.8326V23.1213C9.0591 23.1213 12.9762 19.6739 17.0254 16.7973C17.3149 16.0767 16.5912 16.2139 16.5912 15.6399C12.8315 17.8051 9.32968 20.2354 4.55682 20.5381C4.13522 19.9578 2.53063 19.8111 3.10954 18.2356C7.46081 18.2356 10.2138 15.7927 13.8351 14.7881C14.134 13.9239 15.1314 14.0612 15.7292 13.3499C14.9992 12.4794 14.134 13.5028 13.2531 13.3499V13.0535C12.1078 13.2064 9.32968 13.6276 8.32917 12.7758V11.0443C11.6673 10.0397 14.7035 11.6184 18.328 11.0443C20.2157 10.3267 23.1197 11.0443 25.127 10.3267C25.5832 11.3407 27.8863 9.90243 27.7478 11.6184C27.0148 12.0489 27.6063 13.2095 26.4579 13.3499C25.2875 12.7758 22.5408 12.9162 21.8077 13.0535L18.6174 13.5028C18.9132 15.6367 20.9456 16.7942 21.8077 18.5133C23.5539 19.5179 24.567 16.9377 25.7248 15.9331C26.4579 15.3716 26.5932 13.9239 28.0436 14.4949C29.0598 14.6384 28.9245 16.3668 30.0698 16.2108C30.0698 19.6707 25.7217 18.5133 24.5638 21.24C27.4521 25.1149 31.6649 28.0039 35.7173 30.7338C36.5982 31.1612 38.3224 30.7338 39.197 31.4545C39.2002 32.8834 37.8851 33.1704 37.0167 34.0409Z" fill="#AD473B"/>
</svg>
