<svg width="200" height="260" viewBox="0 0 200 260" fill="none" xmlns="http://www.w3.org/2000/svg" aria-labelledby="title" role="img">
  <title id="title">Uchi (Home) Kanji</title>
  <!-- 内 — clean calligraphic brush strokes -->
  <!-- Outer frame: left vertical -->
  <path d="M40 20 C38 20, 36 22, 36 25 L28 220 C27 228, 30 232, 36 232 L164 232 C170 232, 173 228, 172 220 L164 25 C164 22, 162 20, 160 20" 
        stroke="#4E4B48" stroke-width="10" stroke-linecap="round" stroke-linejoin="round" fill="none"
        opacity="0.9"/>
  <!-- Inner stroke: left diagonal -->
  <path d="M70 80 C68 82, 66 86, 65 90 L55 175 C54 180, 56 183, 60 182" 
        stroke="#4E4B48" stroke-width="8" stroke-linecap="round" fill="none"
        opacity="0.85"/>
  <!-- Inner stroke: right diagonal -->
  <path d="M100 55 C102 58, 108 68, 115 85 L145 170 C148 178, 146 182, 142 180" 
        stroke="#4E4B48" stroke-width="8" stroke-linecap="round" fill="none"
        opacity="0.85"/>
  <!-- Brush splatter accents for organic feel -->
  <circle cx="52" cy="186" r="2" fill="#4E4B48" opacity="0.3"/>
  <circle cx="148" cy="176" r="1.5" fill="#4E4B48" opacity="0.25"/>
</svg>
