<svg width="1196" height="500" viewBox="0 0 1196 500" fill="none" xmlns="http://www.w3.org/2000/svg" aria-labelledby="title" role="img" ><title id="title">Uchi</title>
<path d="M0.549805 154.545H68.6869L68.6869 365.271C68.6869 421.456 95.5747 449.908 149.127 449.908C206.913 449.908 253.93 409.922 253.93 360.413L253.93 154.545L322.135 154.545L322.135 489.195H252.367V430.26C236.131 451.278 197.902 500 126.453 500C50.8103 500 0.549805 456.059 0.549805 390.274L0.549805 154.545Z" fill="#AD473B"/>
<path d="M706.478 406.473C701.632 430.999 661.82 499.388 548.025 499.388C439.154 499.388 362.782 425.489 362.782 319.912C362.782 218.892 440.863 145.013 548.87 145.013C655.314 145.013 692.592 211.439 699.904 239.911L643.827 262.241C628.485 215.443 597.567 193.19 546.413 193.19C474.14 193.19 433.512 239.153 433.512 321.263C433.512 371.345 444.921 401.886 472.508 425.489C493.667 443.777 522.876 453.951 552.162 453.951C604.025 453.951 637.234 431.582 655.324 383.511L706.478 406.473Z" fill="#AD473B"/>
<path d="M751.068 0.664062L819.302 0.664062V212.11C846.044 182.327 885.856 145.732 948.429 145.732C1024.09 145.732 1071.07 191.781 1071.07 266.302V489.195H1002.84L1002.84 273.153C1002.84 224.907 969.549 194.522 918.328 194.522C858.192 194.522 819.312 229.076 819.312 282.617L819.312 489.204H751.078L751.078 0.664062H751.068Z" fill="#AD473B"/>
<path d="M1127.11 16.9888L1195.45 16.9888V90.1299L1127.11 90.1299V16.9888ZM1127.11 154.545H1195.45V489.194H1127.11V154.545Z" fill="#AD473B"/>
</svg>
